<svg width="108" height="108" viewBox="0 0 108 108" fill="none" xmlns="http://www.w3.org/2000/svg">
<g opacity="0.5" clip-path="url(#clip0)">
<path d="M7.81768 79.7707C5.97468 78.8492 3.80772 79.0472 2.1609 80.2819C0.809242 81.297 0.00292969 82.9114 0.00292969 84.5996V97.1982C0.00292969 97.8192 0.323295 98.3951 0.848838 98.7245L15.2473 107.724C15.5334 107.902 15.8628 107.997 16.2012 107.997H52.1973H59.3965H97.1924C97.4714 107.997 97.7485 107.932 97.9969 107.808L105.196 104.208C105.522 104.047 105.788 103.789 105.965 103.472C106.152 103.138 110.457 95.1969 105.954 87.3083C102.154 80.6454 95.191 79.3982 93.8322 79.2164C93.753 79.2056 93.6738 79.2002 93.5928 79.2002H74.5401L73.7859 78.4461C74.756 78.1077 75.6847 77.665 76.545 77.1286C77.4287 76.5779 78.1793 75.9588 78.8434 75.3162L85.8986 77.332L86.8867 73.871L81.2425 72.2584C81.9876 70.9859 82.4556 69.789 82.7166 68.9215C82.767 68.7523 82.794 68.5778 82.794 68.4014V64.7028L87.1027 62.8562L85.6862 59.5481L82.794 60.7882V59.4023C82.794 59.0766 82.7058 58.7562 82.5366 58.4754L77.1372 49.4764C76.8528 49.0013 76.3633 48.6845 75.8143 48.6161C75.2726 48.5567 74.7164 48.7367 74.3223 49.1309L69.4502 54.0029H68.3955V31.3506L70.9404 28.8057H73.2496L78.1955 32.1029C79.0234 32.6554 80.1393 32.4305 80.6918 31.6044L84.2914 26.2049C84.6946 25.6002 84.6946 24.8137 84.2914 24.209L77.0922 13.4101C76.7574 12.908 76.1959 12.6074 75.5947 12.6074H70.1953C69.5132 12.6074 68.8905 12.9926 68.5845 13.6027L65.4834 19.8066H46.1103L43.0075 13.6027C42.7033 12.9926 42.0806 12.6074 41.3984 12.6074H34.1992C33.6179 12.6074 33.0725 12.8882 32.736 13.3615L23.737 25.9602C23.2258 26.6747 23.3068 27.6556 23.9277 28.2783L27.5273 31.8779C28.1339 32.4863 29.0842 32.5763 29.7987 32.1029L34.7446 28.8057H38.8535L39.5986 29.5508V49.1147C34.8472 50.8407 21.8742 56.762 16.3182 71.3621C13.0407 79.9759 13.7678 88.0174 14.9755 93.2855L10.8018 90.7802V84.5996C10.8018 82.5406 9.65708 80.6904 7.81768 79.7707ZM70.1953 57.6025C70.6741 57.6025 71.1312 57.4136 71.4678 57.0752L75.2384 53.3064L79.1944 59.9009V62.3306L73.0858 64.9475L74.5023 68.2556L79.1944 66.2452V68.126C78.9244 68.9557 78.4402 70.086 77.6357 71.2271L74.2899 70.2714L73.3018 73.7324L74.594 74.1014C73.2208 74.9455 71.6874 75.4548 70.0297 75.6096C69.335 75.6744 68.7393 76.1351 68.5035 76.7903C68.2659 77.4472 68.4297 78.1797 68.9229 78.6729L72.5225 82.2725C72.859 82.6108 73.3162 82.7998 73.7949 82.7998H93.465C94.4945 82.9564 99.9353 84.0165 102.829 89.0919C105.792 94.2844 103.767 99.6712 103.045 101.259L96.7676 104.397H80.4902L79.1944 100.506V95.9438L81.4981 92.4882C81.7843 92.0562 82.2666 91.7988 82.7832 91.7988C83.5607 91.7988 83.9602 92.3118 84.0952 92.5314C84.232 92.7527 84.511 93.3395 84.1636 94.0324L82.9829 96.3937C82.6374 97.0867 82.7724 97.9236 83.3213 98.4707L85.1211 100.271C85.4577 100.609 85.9148 100.798 86.3936 100.798H95.3926V97.1982H87.1387L86.7841 96.8437L87.3853 95.6432C88.188 94.0378 88.1016 92.166 87.1585 90.6398C86.2154 89.1135 84.5776 88.1992 82.7832 88.1992C81.0608 88.1992 79.4607 89.0559 78.5032 90.4886L75.8971 94.3996C75.7009 94.6965 75.5947 95.0439 75.5947 95.3984V100.798C75.5947 100.99 75.6271 101.183 75.6883 101.367L76.698 104.397H70.1953V91.7988H66.5957V104.397H61.1963V91.7934V77.4004C61.1963 76.4717 60.489 75.6942 59.5639 75.6078C58.2464 75.4854 57.01 75.1326 55.8671 74.5711L58.2302 73.6856L56.965 70.3146L52.5374 71.9758C51.3694 70.5971 50.7268 69.1393 50.3975 68.126V67.5393V66.2434L55.0878 68.2538L56.5042 64.9457L50.3975 62.3306V59.9009L54.3534 53.3064L58.124 57.0752C58.4606 57.4136 58.9177 57.6025 59.3965 57.6025H66.5957H70.1953ZM17.0741 98.7407C17.7274 99.133 18.5589 99.0719 19.1475 98.5841C19.7342 98.0964 19.952 97.2936 19.6892 96.5773C18.3429 92.9129 15.6468 83.2444 19.682 72.6399C19.9466 71.9434 20.2471 71.2883 20.5477 70.6349L20.5513 70.6367C26.6112 57.4676 39.4241 52.9015 41.933 52.1203C42.6871 51.8882 43.1982 51.1916 43.1982 50.4033V28.8057C43.1982 28.3287 43.0093 27.8698 42.6709 27.5332L40.8711 25.7334C40.5345 25.395 40.0774 25.2061 39.5986 25.2061H34.1992C33.8447 25.2061 33.4955 25.3122 33.2003 25.5084L29.0284 28.2891L27.5507 26.8115L35.1261 16.207H40.2862L43.389 22.411C43.6932 23.0211 44.3159 23.4063 44.9981 23.4063H66.5957C67.2778 23.4063 67.9006 23.0211 68.2065 22.411L71.3076 16.207H74.6318L80.6306 25.2061L78.6958 28.1091L74.7938 25.5084C74.4987 25.3122 74.1495 25.2061 73.7949 25.2061H70.1953C69.7166 25.2061 69.2594 25.395 68.9229 25.7334L65.3233 29.333C64.9849 29.6696 64.7959 30.1285 64.7959 30.6055V54.0029H60.1416L55.2695 49.1309C54.8772 48.7367 54.3246 48.5513 53.7775 48.6161C53.2268 48.6845 52.739 49.0013 52.4546 49.4764L47.0552 58.4754C46.8861 58.7562 46.7979 59.0766 46.7979 59.4023V60.7882L43.9074 59.5499L42.4909 62.858L46.7979 64.7028V67.5411V68.4014C46.7979 68.5778 46.8249 68.7523 46.8753 68.9215C47.2064 70.023 47.8597 71.6464 49.0206 73.295L42.5665 75.7158L43.8318 79.0868L51.6681 76.1477C52.0929 76.4897 52.5518 76.8191 53.0486 77.1286C54.429 77.9889 55.9769 78.6045 57.5985 78.9464V89.9882L46.94 89.954L46.9292 93.5536L57.5967 93.5879V104.397H53.9971C53.9971 100.427 50.7682 97.1982 46.7979 97.1982H43.1982C43.1982 88.2676 35.9324 81 27 81H25.2002V84.5996H27C33.9455 84.5996 39.5986 90.251 39.5986 97.1982V98.9981C39.5986 99.9916 40.4032 100.798 41.3984 100.798H46.7979C48.783 100.798 50.3975 102.412 50.3975 104.397H16.7177L3.60254 96.2012V84.5996C3.60254 84.0363 3.87071 83.4981 4.32066 83.1598C4.8786 82.7422 5.58233 82.6774 6.20686 82.9906C6.82959 83.302 7.20215 83.9031 7.20215 84.5996V91.7988C7.20215 92.4306 7.53511 93.0173 8.07506 93.3413L17.0741 98.7407Z" fill="#2D2D2D"/>
<path d="M16.0009 63.689C5.1445 49.9025 1.15433 35.7722 5.05631 24.923C7.97199 16.8131 17.3832 4.45022 31.3533 3.63131C40.3703 3.12557 47.5677 10.5732 51.0251 14.1638C51.6857 14.8477 52.2202 15.4002 52.6162 15.7512C52.8339 15.9456 53.0985 16.0842 53.3811 16.1544L53.5665 16.1994C54.1406 16.3415 54.7525 16.1922 55.1953 15.7962C55.5786 15.456 56.0952 14.9269 56.7341 14.27C60.2491 10.6596 67.5869 3.16336 76.6418 3.67451C90.6136 4.49522 100.023 16.8581 102.939 24.968C107.375 37.3003 101.605 53.7523 87.5054 68.9768L90.1457 71.4228C105.178 55.1921 111.227 37.3705 106.328 23.7495C103.086 14.7415 92.5646 1.0036 76.8523 0.0820977C66.1723 -0.560433 58.0426 7.76547 54.1532 11.761C54.0776 11.8384 54.002 11.9158 53.93 11.9896C53.8292 11.887 53.7266 11.779 53.6168 11.6656C49.7869 7.68807 41.7561 -0.605428 31.1427 0.0389024C15.4304 0.960403 4.90872 14.6965 1.66727 23.7063C-2.66126 35.747 1.53049 51.1318 13.1698 65.9154L16.0009 63.689Z" fill="#2D2D2D"/>
<path d="M50.3975 30.605H46.7979V34.2046H50.3975V30.605Z" fill="#2D2D2D"/>
<path d="M61.1963 30.605H57.5967V34.2046H61.1963V30.605Z" fill="#2D2D2D"/>
<path d="M57.5967 37.8042H50.3975V41.4038H57.5967V37.8042Z" fill="#2D2D2D"/>
<path d="M61.1963 61.2021H57.5967V64.8018H61.1963V61.2021Z" fill="#2D2D2D"/>
<path d="M71.9951 61.2021H68.3955V64.8018H71.9951V61.2021Z" fill="#2D2D2D"/>
<path d="M66.5957 66.6016H62.9961V70.2012H66.5957V66.6016Z" fill="#2D2D2D"/>
</g>
<defs>
<clipPath id="clip0">
<rect width="108" height="108" fill="white"/>
</clipPath>
</defs>
</svg>
