<svg width="108" height="108" viewBox="0 0 108 108" fill="none" xmlns="http://www.w3.org/2000/svg">
<g clip-path="url(#clip0)">
<path d="M41.3977 50.4029V28.8052L39.5979 27.0054H34.1984L28.799 30.605L25.1994 27.0054L34.1984 14.4068H41.3977L44.9973 21.606H66.5949L70.1945 14.4068H75.594L82.7932 25.2056L79.1936 30.605L73.7942 27.0054H70.1945L66.5949 30.605V55.8023H70.1945L75.594 50.4029L80.9934 59.4019V63.5162V68.4009C80.7594 69.1784 80.0323 71.2824 78.2865 73.2838C77.5702 74.1063 76.699 74.9108 75.594 75.6001C73.4702 76.923 71.4094 77.2865 70.1945 77.3999L73.7942 80.9995H78.7256L88.8243 70.2007C103.414 54.447 109.272 37.2607 104.632 24.3597C101.545 15.7764 91.5348 2.74761 76.7458 1.88011C65.2037 1.20338 56.5232 12.2038 53.9963 14.4517L53.8127 14.4068C51.2858 12.157 42.7889 1.15838 31.2468 1.83511C16.4578 2.70262 6.44725 15.7314 3.36059 24.3147C-0.757368 35.7668 3.39838 50.5954 14.586 64.8031L18.6733 70.4473C25.1094 55.7807 39.4773 51.0004 41.3977 50.4029Z" fill="#A9CB73"/>
<path d="M52.1968 106.197H59.396V91.793V77.3999C58.1811 77.2865 56.1204 76.923 53.9966 75.6001C53.2515 75.1358 52.6305 74.612 52.0672 74.0739C49.7617 71.8637 48.8617 69.2828 48.5972 68.4009V67.5406V63.5162V59.4019L53.9966 50.4028L59.396 55.8023H66.5952V30.605L70.1948 27.0054H73.7944L79.1939 30.605L82.7935 25.2056L75.5943 14.4067H70.1948L66.5952 21.606H44.9976L41.398 14.4067H34.1987L25.1997 27.0054L28.7993 30.605L34.1987 27.0054H39.5982L41.398 28.8052V50.4028C39.4776 51.0004 25.1097 55.7807 18.6736 70.4455C18.4486 70.962 18.2057 71.4588 18.0005 72.0005C13.4902 83.8504 16.9476 94.3325 18.0005 97.1978L9.00147 91.7984V84.5991C9.00147 81.6331 5.61423 79.9394 3.24209 81.7195C2.33499 82.3998 1.80225 83.4653 1.80225 84.5991V97.1978L16.2007 106.197H52.1968Z" fill="#F4CD57"/>
<path d="M70.1948 77.3999C71.4097 77.2865 73.4705 76.923 75.5942 75.6001C76.6993 74.9108 77.5704 74.1063 78.2868 73.2838C80.0326 71.2824 80.7597 69.1784 80.9937 68.4009V63.5162V59.4019L75.5942 50.4028L70.1948 55.8022H66.5952H59.396L53.9966 50.4028L48.5972 59.4019V63.5162V67.5406V68.4009C48.8617 69.2828 49.7616 71.8637 52.0672 74.0739C52.6305 74.612 53.2515 75.1358 53.9966 75.6001C56.1204 76.923 58.1811 77.2865 59.396 77.3999V91.793V106.197H68.395H79.1938H97.1919L104.391 102.597C104.603 102.214 108.361 95.1568 104.391 88.1987C100.91 82.0974 94.359 81.1021 93.5923 80.9995H78.7259H73.7944L70.1948 77.3999Z" fill="#EAEAEA"/>
<path d="M7.81719 79.7707C5.97419 78.8492 3.80723 79.0472 2.16041 80.2819C0.808754 81.297 0.00244141 82.9114 0.00244141 84.5996V97.1982C0.00244141 97.8192 0.322807 98.3951 0.84835 98.7245L15.2468 107.724C15.533 107.902 15.8623 107.997 16.2007 107.997H52.1968H59.396H97.1919C97.4709 107.997 97.7481 107.932 97.9964 107.808L105.196 104.208C105.521 104.047 105.788 103.789 105.964 103.472C106.151 103.138 110.456 95.1969 105.953 87.3083C102.154 80.6454 95.1905 79.3982 93.8317 79.2164C93.7525 79.2056 93.6733 79.2002 93.5923 79.2002H74.5396L73.7855 78.4461C74.7555 78.1077 75.6842 77.665 76.5445 77.1286C77.4283 76.5779 78.1788 75.9588 78.8429 75.3162L85.8981 77.332L86.8862 73.871L81.242 72.2584C81.9872 70.9859 82.4551 69.789 82.7161 68.9215C82.7665 68.7523 82.7935 68.5778 82.7935 68.4014V64.7028L87.1022 62.8562L85.6858 59.5481L82.7935 60.7882V59.4023C82.7935 59.0766 82.7053 58.7562 82.5361 58.4754L77.1367 49.4764C76.8523 49.0013 76.3628 48.6845 75.8138 48.6161C75.2721 48.5567 74.716 48.7367 74.3218 49.1309L69.4497 54.0029H68.395V31.3506L70.94 28.8057H73.2491L78.195 32.1029C79.0229 32.6554 80.1388 32.4305 80.6913 31.6044L84.2909 26.2049C84.6941 25.6002 84.6941 24.8137 84.2909 24.209L77.0917 13.4101C76.7569 12.908 76.1954 12.6074 75.5943 12.6074H70.1948C69.5127 12.6074 68.89 12.9926 68.584 13.6027L65.4829 19.8066H46.1098L43.007 13.6027C42.7028 12.9926 42.0801 12.6074 41.398 12.6074H34.1987C33.6174 12.6074 33.0721 12.8882 32.7355 13.3615L23.7365 25.9602C23.2253 26.6747 23.3063 27.6556 23.9272 28.2783L27.5269 31.8779C28.1334 32.4863 29.0837 32.5763 29.7982 32.1029L34.7441 28.8057H38.853L39.5982 29.5508V49.1147C34.8467 50.8407 21.8737 56.762 16.3177 71.3621C13.0402 79.9759 13.7674 88.0174 14.975 93.2855L10.8013 90.7802V84.5996C10.8013 82.5406 9.6566 80.6904 7.81719 79.7707ZM70.1948 57.6025C70.6736 57.6025 71.1307 57.4136 71.4673 57.0752L75.2379 53.3064L79.1939 59.9009V62.3306L73.0853 64.9475L74.5018 68.2556L79.1939 66.2452V68.126C78.9239 68.9557 78.4398 70.086 77.6352 71.2271L74.2894 70.2714L73.3013 73.7324L74.5936 74.1014C73.2203 74.9455 71.6869 75.4548 70.0293 75.6096C69.3345 75.6744 68.7388 76.1351 68.503 76.7903C68.2654 77.4472 68.4292 78.1797 68.9224 78.6729L72.522 82.2725C72.8586 82.6108 73.3157 82.7998 73.7944 82.7998H93.4645C94.494 82.9564 99.9348 84.0165 102.829 89.0919C105.791 94.2844 103.767 99.6712 103.045 101.259L96.7672 104.397H80.4897L79.1939 100.506V95.9438L81.4976 92.4882C81.7838 92.0562 82.2661 91.7988 82.7827 91.7988C83.5602 91.7988 83.9598 92.3118 84.0947 92.5314C84.2315 92.7527 84.5105 93.3395 84.1631 94.0324L82.9825 96.3937C82.6369 97.0867 82.7719 97.9236 83.3208 98.4707L85.1206 100.271C85.4572 100.609 85.9143 100.798 86.3931 100.798H95.3921V97.1982H87.1382L86.7836 96.8437L87.3848 95.6432C88.1875 94.0378 88.1011 92.166 87.158 90.6398C86.2149 89.1135 84.5771 88.1992 82.7827 88.1992C81.0603 88.1992 79.4602 89.0559 78.5027 90.4886L75.8966 94.3996C75.7004 94.6965 75.5943 95.0439 75.5943 95.3984V100.798C75.5943 100.99 75.6267 101.183 75.6878 101.367L76.6975 104.397H70.1948V91.7988H66.5952V104.397H61.1958V91.7934V77.4004C61.1958 76.4717 60.4885 75.6942 59.5634 75.6078C58.2459 75.4854 57.0095 75.1326 55.8666 74.5711L58.2297 73.6856L56.9645 70.3146L52.5369 71.9758C51.3689 70.5971 50.7263 69.1393 50.397 68.126V67.5393V66.2434L55.0873 68.2538L56.5037 64.9457L50.397 62.3306V59.9009L54.353 53.3064L58.1236 57.0752C58.4601 57.4136 58.9173 57.6025 59.396 57.6025H66.5952H70.1948ZM17.0736 98.7407C17.7269 99.133 18.5584 99.0719 19.147 98.5841C19.7337 98.0964 19.9515 97.2936 19.6887 96.5773C18.3425 92.9129 15.6463 83.2444 19.6815 72.6399C19.9461 71.9434 20.2466 71.2883 20.5472 70.6349L20.5508 70.6367C26.6108 57.4676 39.4236 52.9015 41.9325 52.1203C42.6866 51.8882 43.1978 51.1916 43.1978 50.4033V28.8057C43.1978 28.3287 43.0088 27.8698 42.6704 27.5332L40.8706 25.7334C40.5341 25.395 40.0769 25.2061 39.5982 25.2061H34.1987C33.8442 25.2061 33.495 25.3122 33.1998 25.5084L29.0279 28.2891L27.5503 26.8115L35.1256 16.207H40.2857L43.3885 22.411C43.6927 23.0211 44.3154 23.4063 44.9976 23.4063H66.5952C67.2774 23.4063 67.9001 23.0211 68.2061 22.411L71.3071 16.207H74.6314L80.6301 25.2061L78.6953 28.1091L74.7933 25.5084C74.4982 25.3122 74.149 25.2061 73.7944 25.2061H70.1948C69.7161 25.2061 69.2589 25.395 68.9224 25.7334L65.3228 29.333C64.9844 29.6696 64.7954 30.1285 64.7954 30.6055V54.0029H60.1411L55.2691 49.1309C54.8767 48.7367 54.3242 48.5513 53.777 48.6161C53.2263 48.6845 52.7385 49.0013 52.4542 49.4764L47.0547 58.4754C46.8856 58.7562 46.7974 59.0766 46.7974 59.4023V60.7882L43.9069 59.5499L42.4904 62.858L46.7974 64.7028V67.5411V68.4014C46.7974 68.5778 46.8244 68.7523 46.8748 68.9215C47.2059 70.023 47.8593 71.6464 49.0201 73.295L42.566 75.7158L43.8313 79.0868L51.6676 76.1477C52.0924 76.4897 52.5513 76.8191 53.0481 77.1286C54.4285 77.9889 55.9764 78.6045 57.598 78.9464V89.9882L46.9396 89.954L46.9288 93.5536L57.5962 93.5879V104.397H53.9966C53.9966 100.427 50.7677 97.1982 46.7974 97.1982H43.1978C43.1978 88.2676 35.9319 81 26.9995 81H25.1997V84.5996H26.9995C33.945 84.5996 39.5982 90.251 39.5982 97.1982V98.9981C39.5982 99.9916 40.4027 100.798 41.398 100.798H46.7974C48.7826 100.798 50.397 102.412 50.397 104.397H16.7172L3.60205 96.2012V84.5996C3.60205 84.0363 3.87022 83.4981 4.32017 83.1598C4.87811 82.7422 5.58184 82.6774 6.20637 82.9906C6.8291 83.302 7.20166 83.9031 7.20166 84.5996V91.7988C7.20166 92.4306 7.53463 93.0173 8.07457 93.3413L17.0736 98.7407Z" fill="#2D2D2D"/>
<path d="M16.0009 63.689C5.1445 49.9025 1.15433 35.7722 5.05631 24.923C7.97199 16.8131 17.3832 4.45022 31.3533 3.63131C40.3703 3.12557 47.5677 10.5732 51.0251 14.1638C51.6857 14.8477 52.2202 15.4002 52.6162 15.7512C52.8339 15.9456 53.0985 16.0842 53.3811 16.1544L53.5665 16.1994C54.1406 16.3415 54.7525 16.1922 55.1953 15.7962C55.5786 15.456 56.0952 14.9269 56.7341 14.27C60.2491 10.6596 67.5869 3.16336 76.6418 3.67451C90.6136 4.49522 100.023 16.8581 102.939 24.968C107.375 37.3003 101.605 53.7523 87.5054 68.9768L90.1457 71.4228C105.178 55.1921 111.227 37.3705 106.328 23.7495C103.086 14.7415 92.5646 1.0036 76.8523 0.0820977C66.1723 -0.560433 58.0426 7.76547 54.1532 11.761C54.0776 11.8384 54.002 11.9158 53.93 11.9896C53.8292 11.887 53.7266 11.779 53.6168 11.6656C49.7869 7.68807 41.7561 -0.605428 31.1427 0.0389024C15.4304 0.960403 4.90872 14.6965 1.66727 23.7063C-2.66126 35.747 1.53049 51.1318 13.1698 65.9154L16.0009 63.689Z" fill="#2D2D2D"/>
<path d="M50.397 30.605H46.7974V34.2046H50.397V30.605Z" fill="#2D2D2D"/>
<path d="M61.1958 30.605H57.5962V34.2046H61.1958V30.605Z" fill="#2D2D2D"/>
<path d="M57.5962 37.8042H50.397V41.4038H57.5962V37.8042Z" fill="#2D2D2D"/>
<path d="M61.1958 61.2021H57.5962V64.8018H61.1958V61.2021Z" fill="#2D2D2D"/>
<path d="M71.9946 61.2021H68.395V64.8018H71.9946V61.2021Z" fill="#2D2D2D"/>
<path d="M66.5952 66.6016H62.9956V70.2012H66.5952V66.6016Z" fill="#2D2D2D"/>
</g>
<defs>
<clipPath id="clip0">
<rect width="108" height="108" fill="white"/>
</clipPath>
</defs>
</svg>
