<?xml version="1.0" encoding="UTF-8" standalone="no"?>
<!DOCTYPE svg PUBLIC "-//W3C//DTD SVG 1.1//EN" "http://www.w3.org/Graphics/SVG/1.1/DTD/svg11.dtd">
<svg width="100%" height="100%" viewBox="0 0 198 118" version="1.1" xmlns="http://www.w3.org/2000/svg" xmlns:xlink="http://www.w3.org/1999/xlink" xml:space="preserve" xmlns:serif="http://www.serif.com/" style="fill-rule:evenodd;clip-rule:evenodd;stroke-linejoin:round;stroke-miterlimit:1.41421;">
    <g transform="matrix(1,0,0,1,-860.817,-497)">
        <g id="stroller" transform="matrix(0.971729,0,0,0.971729,959.527,555.549)">
            <g transform="matrix(1,0,0,1,-60.5,-60.5)">
                <clipPath id="_clip1">
                    <rect x="0" y="0" width="121" height="121"/>
                </clipPath>
                <g clip-path="url(#_clip1)">
                    <path d="M121,60.5L59.268,60.5L76.556,0L79.406,0C102.339,0 121,18.661 121,41.594L121,60.5Z" style="fill:rgb(194,194,194);fill-rule:nonzero;"/>
                    <path d="M118.467,27.263L78.37,45.95L107.765,11.192C105.913,9.453 103.908,7.903 101.791,6.542L61.407,54.261L64.281,56.719L65.869,60.159L120.433,34.712C120.017,32.141 119.336,29.645 118.467,27.263Z" style="fill:rgb(162,162,162);fill-rule:nonzero;"/>
                    <path d="M22.688,56.719L15.125,56.719L15.125,49.156C15.125,47.069 13.431,45.375 11.344,45.375L0,45.375L0,37.813L11.344,37.813C17.598,37.813 22.688,42.902 22.688,49.156L22.688,56.719Z" style="fill:rgb(131,131,131);fill-rule:nonzero;"/>
                    <path d="M15.125,49.156L15.125,56.719L22.688,56.719L22.688,49.156C22.688,47.825 22.415,46.562 21.991,45.375L11.344,45.375C13.431,45.375 15.125,47.069 15.125,49.156Z" style="fill:rgb(131,131,131);fill-rule:nonzero;"/>
                    <path d="M86.969,98.313L49.156,98.313C30.39,98.313 15.125,83.047 15.125,64.281L15.125,52.938L121,52.938L121,64.281C121,83.047 105.735,98.313 86.969,98.313Z" style="fill:rgb(156,156,156);fill-rule:nonzero;"/>
                    <rect x="34.031" y="68.063" width="7.563" height="7.563" style="fill:white;fill-rule:nonzero;"/>
                    <rect x="49.156" y="68.063" width="7.563" height="7.563" style="fill:white;fill-rule:nonzero;"/>
                    <rect x="64.281" y="68.063" width="7.563" height="7.563" style="fill:white;fill-rule:nonzero;"/>
                    <rect x="79.406" y="68.063" width="7.563" height="7.563" style="fill:white;fill-rule:nonzero;"/>
                    <rect x="94.531" y="68.063" width="7.563" height="7.563" style="fill:white;fill-rule:nonzero;"/>
                    <path d="M114.194,77.104C109.804,82.946 102.272,85.055 95.106,83.619C93.696,83.335 92.24,83.188 90.75,83.188C84.057,83.188 78.06,86.121 73.908,90.75L62.209,90.75C58.061,86.121 52.064,83.188 45.375,83.188C43.878,83.188 42.418,83.335 41.008,83.619C33.846,85.051 26.317,82.938 21.931,77.099C17.658,71.416 15.125,64.361 15.125,56.719L15.125,64.281C15.125,83.078 30.36,98.313 49.156,98.313L86.969,98.313C105.765,98.313 121,83.078 121,64.281L121,56.719C121,64.361 118.467,71.42 114.194,77.104Z" style="fill:rgb(181,181,181);fill-rule:nonzero;"/>
                    <path d="M105.875,105.875C105.875,114.229 99.104,121 90.75,121C82.396,121 75.625,114.229 75.625,105.875C75.625,97.521 82.396,90.75 90.75,90.75C99.104,90.75 105.875,97.521 105.875,105.875Z" style="fill:rgb(87,86,92);fill-rule:nonzero;"/>
                    <path d="M60.5,105.875C60.5,114.229 53.729,121 45.375,121C37.021,121 30.25,114.229 30.25,105.875C30.25,97.521 37.021,90.75 45.375,90.75C53.729,90.75 60.5,97.521 60.5,105.875Z" style="fill:rgb(87,86,92);fill-rule:nonzero;"/>
                    <path d="M94.531,105.875C94.531,107.963 92.838,109.656 90.75,109.656C88.662,109.656 86.969,107.963 86.969,105.875C86.969,103.787 88.662,102.094 90.75,102.094C92.838,102.094 94.531,103.787 94.531,105.875Z" style="fill:rgb(157,157,157);fill-rule:nonzero;"/>
                    <path d="M49.156,105.875C49.156,107.963 47.463,109.656 45.375,109.656C43.287,109.656 41.594,107.963 41.594,105.875C41.594,103.787 43.287,102.094 45.375,102.094C47.463,102.094 49.156,103.787 49.156,105.875Z" style="fill:rgb(157,157,157);fill-rule:nonzero;"/>
                </g>
            </g>
        </g>
    </g>
</svg>
