<svg width="144" height="48" viewBox="0 0 144 48" fill="none" xmlns="http://www.w3.org/2000/svg">
<path d="M68.9546 5.99999C70.2079 5.99999 71.2813 6.31332 72.1746 6.93999C73.0813 7.55332 73.7679 8.39332 74.2346 9.45999C74.7146 10.5133 74.9546 11.6933 74.9546 13C74.9546 14.3067 74.7146 15.4933 74.2346 16.56C73.7679 17.6133 73.0813 18.4533 72.1746 19.08C71.2813 19.6933 70.2079 20 68.9546 20H64.1746C63.8279 20 63.5346 19.8867 63.2946 19.66C63.0679 19.42 62.9546 19.1267 62.9546 18.78V7.21999C62.9546 6.87332 63.0679 6.58666 63.2946 6.35999C63.5346 6.11999 63.8279 5.99999 64.1746 5.99999H68.9546ZM68.7546 17.7C69.9546 17.7 70.8546 17.26 71.4546 16.38C72.0546 15.4867 72.3546 14.36 72.3546 13C72.3546 11.64 72.0479 10.52 71.4346 9.63999C70.8346 8.74666 69.9413 8.29999 68.7546 8.29999H65.4546V17.7H68.7546Z" fill="white"/>
<path d="M86.8077 14.4C86.7944 14.72 86.6677 14.98 86.4277 15.18C86.1877 15.38 85.9077 15.48 85.5877 15.48H78.9877C79.1477 16.2667 79.5144 16.8867 80.0877 17.34C80.6611 17.78 81.3077 18 82.0277 18C82.5744 18 83.0011 17.9533 83.3077 17.86C83.6144 17.7533 83.8544 17.6467 84.0277 17.54C84.2144 17.42 84.3411 17.34 84.4077 17.3C84.6477 17.18 84.8744 17.12 85.0877 17.12C85.3677 17.12 85.6077 17.22 85.8077 17.42C86.0077 17.62 86.1077 17.8533 86.1077 18.12C86.1077 18.48 85.9211 18.8067 85.5477 19.1C85.1744 19.4067 84.6744 19.6667 84.0477 19.88C83.4211 20.0933 82.7877 20.2 82.1477 20.2C81.0277 20.2 80.0477 19.9667 79.2077 19.5C78.3811 19.0333 77.7411 18.3933 77.2877 17.58C76.8344 16.7533 76.6077 15.8267 76.6077 14.8C76.6077 13.6533 76.8477 12.6467 77.3277 11.78C77.8077 10.9133 78.4411 10.2533 79.2277 9.79999C80.0144 9.33332 80.8544 9.09999 81.7477 9.09999C82.6277 9.09999 83.4544 9.33999 84.2277 9.81999C85.0144 10.3 85.6411 10.9467 86.1077 11.76C86.5744 12.5733 86.8077 13.4533 86.8077 14.4ZM81.7477 11.3C80.2011 11.3 79.2877 12.0267 79.0077 13.48H84.2477V13.34C84.1944 12.78 83.9211 12.3 83.4277 11.9C82.9344 11.5 82.3744 11.3 81.7477 11.3ZM83.7477 5.07999C83.9211 5.07999 84.0744 5.13332 84.2077 5.23999C84.3411 5.33332 84.4077 5.45332 84.4077 5.59999C84.4077 5.81332 84.3011 6.04666 84.0877 6.29999L83.2077 7.39999C83.0477 7.61332 82.8677 7.76666 82.6677 7.85999C82.4811 7.95332 82.2544 7.99999 81.9877 7.99999H81.2677C81.0011 7.99999 80.7677 7.95332 80.5677 7.85999C80.3811 7.76666 80.2077 7.61332 80.0477 7.39999L79.1677 6.29999C79.0077 6.08666 78.9277 5.87332 78.9277 5.65999C78.9277 5.48666 78.9944 5.34666 79.1277 5.23999C79.2744 5.13332 79.4811 5.07999 79.7477 5.07999C79.9877 5.07999 80.2877 5.23332 80.6477 5.53999L81.6477 6.39999L82.6477 5.53999C82.8611 5.36666 83.0344 5.24666 83.1677 5.17999C83.3144 5.11332 83.5077 5.07999 83.7477 5.07999Z" fill="white"/>
<path d="M93.9693 17.74C94.156 17.74 94.3226 17.8333 94.4693 18.02C94.6293 18.1933 94.7093 18.4267 94.7093 18.72C94.7093 19.08 94.5093 19.3867 94.1093 19.64C93.7226 19.88 93.2826 20 92.7893 20C91.9626 20 91.2626 19.8267 90.6893 19.48C90.1293 19.12 89.8493 18.3667 89.8493 17.22V11.7H88.9293C88.6093 11.7 88.3426 11.5933 88.1293 11.38C87.916 11.1667 87.8093 10.9 87.8093 10.58C87.8093 10.2733 87.916 10.02 88.1293 9.81999C88.3426 9.60666 88.6093 9.49999 88.9293 9.49999H89.8493V8.21999C89.8493 7.87332 89.9626 7.58666 90.1893 7.35999C90.4293 7.11999 90.7226 6.99999 91.0693 6.99999C91.4026 6.99999 91.6826 7.11999 91.9093 7.35999C92.136 7.58666 92.2493 7.87332 92.2493 8.21999V9.49999H93.6693C93.9893 9.49999 94.256 9.60666 94.4693 9.81999C94.6826 10.0333 94.7893 10.3 94.7893 10.62C94.7893 10.9267 94.6826 11.1867 94.4693 11.4C94.256 11.6 93.9893 11.7 93.6693 11.7H92.2493V17.12C92.2493 17.4 92.3226 17.6067 92.4693 17.74C92.616 17.86 92.816 17.92 93.0693 17.92C93.176 17.92 93.3226 17.8933 93.5093 17.84C93.6693 17.7733 93.8226 17.74 93.9693 17.74Z" fill="white"/>
<path d="M96.7635 18.34C96.6435 18.18 96.5835 17.98 96.5835 17.74C96.5835 17.3933 96.7568 17.1 97.1035 16.86C97.2902 16.74 97.4835 16.68 97.6835 16.68C97.9635 16.68 98.2302 16.8067 98.4835 17.06C98.8835 17.4733 99.2968 17.78 99.7235 17.98C100.164 18.18 100.69 18.28 101.304 18.28C102.344 18.24 102.864 17.8467 102.864 17.1C102.864 16.7133 102.684 16.42 102.324 16.22C101.977 16.02 101.43 15.82 100.684 15.62C99.9102 15.4067 99.2768 15.1933 98.7835 14.98C98.3035 14.7667 97.8835 14.4467 97.5235 14.02C97.1768 13.58 97.0035 12.9933 97.0035 12.26C97.0035 11.62 97.1835 11.0667 97.5435 10.6C97.9168 10.12 98.3968 9.75332 98.9835 9.49999C99.5835 9.23332 100.217 9.09999 100.884 9.09999C101.564 9.09999 102.244 9.22666 102.924 9.47999C103.604 9.73332 104.137 10.1067 104.524 10.6C104.697 10.8133 104.784 11.0533 104.784 11.32C104.784 11.6267 104.657 11.88 104.404 12.08C104.217 12.2267 104.004 12.3 103.764 12.3C103.47 12.3 103.23 12.2067 103.044 12.02C102.804 11.7267 102.49 11.4933 102.104 11.32C101.73 11.1467 101.304 11.06 100.824 11.06C99.8102 11.06 99.3035 11.4267 99.3035 12.16C99.3035 12.4533 99.3968 12.6933 99.5835 12.88C99.7702 13.0533 100.004 13.1933 100.284 13.3C100.577 13.3933 100.984 13.5133 101.504 13.66C102.224 13.86 102.824 14.0667 103.304 14.28C103.784 14.4933 104.19 14.82 104.524 15.26C104.857 15.7 105.024 16.28 105.024 17C105.024 17.6533 104.83 18.2267 104.444 18.72C104.057 19.2 103.557 19.5667 102.944 19.82C102.344 20.0733 101.724 20.2 101.084 20.2C100.204 20.2 99.3835 20.0533 98.6235 19.76C97.8635 19.4667 97.2435 18.9933 96.7635 18.34Z" fill="white"/>
<path d="M115.932 17.9C116.185 18.1667 116.312 18.4667 116.312 18.8C116.312 19.1333 116.179 19.4133 115.912 19.64C115.659 19.8667 115.385 19.98 115.092 19.98C114.745 19.98 114.452 19.8467 114.212 19.58L110.612 15.78L109.632 16.68V18.78C109.632 19.1267 109.519 19.42 109.292 19.66C109.065 19.8867 108.779 20 108.432 20C108.085 20 107.799 19.8867 107.572 19.66C107.345 19.42 107.232 19.1267 107.232 18.78V6.41999C107.232 6.07332 107.345 5.78666 107.572 5.55999C107.799 5.31999 108.085 5.19999 108.432 5.19999C108.779 5.19999 109.065 5.31999 109.292 5.55999C109.519 5.78666 109.632 6.07332 109.632 6.41999V13.82L113.912 9.67999C114.165 9.42666 114.459 9.29999 114.792 9.29999C115.085 9.29999 115.345 9.42666 115.572 9.67999C115.812 9.91999 115.932 10.1667 115.932 10.42C115.932 10.74 115.772 11.04 115.452 11.32L112.432 14.1L115.932 17.9Z" fill="white"/>
<path d="M126.359 9.29999C126.705 9.29999 126.992 9.41999 127.219 9.65999C127.445 9.88666 127.559 10.1733 127.559 10.52V19.02C127.559 20.7533 127.092 22.0133 126.159 22.8C125.225 23.6 123.979 24 122.419 24C121.965 24 121.499 23.96 121.019 23.88C120.552 23.8133 120.172 23.72 119.879 23.6C119.225 23.32 118.899 22.9333 118.899 22.44C118.899 22.3467 118.919 22.24 118.959 22.12C119.039 21.8267 119.172 21.6 119.359 21.44C119.559 21.2933 119.772 21.22 119.999 21.22C120.132 21.22 120.259 21.24 120.379 21.28C120.472 21.32 120.632 21.3867 120.859 21.48C121.099 21.5733 121.345 21.6467 121.599 21.7C121.865 21.7667 122.139 21.8 122.419 21.8C123.365 21.8 124.059 21.5933 124.499 21.18C124.952 20.78 125.179 20.0867 125.179 19.1V18.9C124.485 19.7667 123.405 20.2 121.939 20.2C121.245 20.2 120.632 20.04 120.099 19.72C119.565 19.3867 119.152 18.9333 118.859 18.36C118.565 17.7733 118.419 17.1067 118.419 16.36V10.52C118.419 10.1733 118.532 9.88666 118.759 9.65999C118.985 9.41999 119.272 9.29999 119.619 9.29999C119.965 9.29999 120.252 9.41999 120.479 9.65999C120.705 9.88666 120.819 10.1733 120.819 10.52V15.64C120.819 16.48 120.999 17.0867 121.359 17.46C121.732 17.82 122.272 18 122.979 18C123.672 18 124.205 17.8 124.579 17.4C124.965 16.9867 125.159 16.4 125.159 15.64V10.52C125.159 10.1733 125.272 9.88666 125.499 9.65999C125.725 9.41999 126.012 9.29999 126.359 9.29999ZM123.099 8.61999C122.965 8.61999 122.819 8.55999 122.659 8.43999C122.512 8.31999 122.445 8.15999 122.459 7.95999C122.459 7.83999 122.499 7.71332 122.579 7.57999L123.739 5.53999C123.872 5.29999 124.032 5.10666 124.219 4.95999C124.405 4.81332 124.612 4.73999 124.839 4.73999C125.199 4.73999 125.465 4.83332 125.639 5.01999C125.825 5.20666 125.912 5.44666 125.899 5.73999C125.872 6.04666 125.745 6.33332 125.519 6.59999L123.999 8.27999C123.785 8.50666 123.485 8.61999 123.099 8.61999Z" fill="white"/>
<path d="M72.3546 36.4C72.3413 36.72 72.2146 36.98 71.9746 37.18C71.7346 37.38 71.4546 37.48 71.1346 37.48H64.5346C64.6946 38.2667 65.0613 38.8867 65.6346 39.34C66.2079 39.78 66.8546 40 67.5746 40C68.1213 40 68.5479 39.9533 68.8546 39.86C69.1613 39.7533 69.4013 39.6467 69.5746 39.54C69.7613 39.42 69.8879 39.34 69.9546 39.3C70.1946 39.18 70.4213 39.12 70.6346 39.12C70.9146 39.12 71.1546 39.22 71.3546 39.42C71.5546 39.62 71.6546 39.8533 71.6546 40.12C71.6546 40.48 71.4679 40.8067 71.0946 41.1C70.7213 41.4067 70.2213 41.6667 69.5946 41.88C68.9679 42.0933 68.3346 42.2 67.6946 42.2C66.5746 42.2 65.5946 41.9667 64.7546 41.5C63.9279 41.0333 63.2879 40.3933 62.8346 39.58C62.3813 38.7533 62.1546 37.8267 62.1546 36.8C62.1546 35.6533 62.3946 34.6467 62.8746 33.78C63.3546 32.9133 63.9879 32.2533 64.7746 31.8C65.5613 31.3333 66.4013 31.1 67.2946 31.1C68.1746 31.1 69.0013 31.34 69.7746 31.82C70.5613 32.3 71.1879 32.9467 71.6546 33.76C72.1213 34.5733 72.3546 35.4533 72.3546 36.4ZM67.2946 33.3C65.7479 33.3 64.8346 34.0267 64.5546 35.48H69.7946V35.34C69.7413 34.78 69.4679 34.3 68.9746 33.9C68.4813 33.5 67.9213 33.3 67.2946 33.3Z" fill="white"/>
<path d="M73.7362 40.34C73.6162 40.18 73.5562 39.98 73.5562 39.74C73.5562 39.3933 73.7295 39.1 74.0762 38.86C74.2628 38.74 74.4562 38.68 74.6562 38.68C74.9362 38.68 75.2028 38.8067 75.4562 39.06C75.8562 39.4733 76.2695 39.78 76.6962 39.98C77.1362 40.18 77.6628 40.28 78.2762 40.28C79.3162 40.24 79.8362 39.8467 79.8362 39.1C79.8362 38.7133 79.6562 38.42 79.2962 38.22C78.9495 38.02 78.4028 37.82 77.6562 37.62C76.8828 37.4067 76.2495 37.1933 75.7562 36.98C75.2762 36.7667 74.8562 36.4467 74.4962 36.02C74.1495 35.58 73.9762 34.9933 73.9762 34.26C73.9762 33.62 74.1562 33.0667 74.5162 32.6C74.8895 32.12 75.3695 31.7533 75.9562 31.5C76.5562 31.2333 77.1895 31.1 77.8562 31.1C78.5362 31.1 79.2162 31.2267 79.8962 31.48C80.5762 31.7333 81.1095 32.1067 81.4962 32.6C81.6695 32.8133 81.7562 33.0533 81.7562 33.32C81.7562 33.6267 81.6295 33.88 81.3762 34.08C81.1895 34.2267 80.9762 34.3 80.7362 34.3C80.4428 34.3 80.2028 34.2067 80.0162 34.02C79.7762 33.7267 79.4628 33.4933 79.0762 33.32C78.7028 33.1467 78.2762 33.06 77.7962 33.06C76.7828 33.06 76.2762 33.4267 76.2762 34.16C76.2762 34.4533 76.3695 34.6933 76.5562 34.88C76.7428 35.0533 76.9762 35.1933 77.2562 35.3C77.5495 35.3933 77.9562 35.5133 78.4762 35.66C79.1962 35.86 79.7962 36.0667 80.2762 36.28C80.7562 36.4933 81.1628 36.82 81.4962 37.26C81.8295 37.7 81.9962 38.28 81.9962 39C81.9962 39.6533 81.8028 40.2267 81.4162 40.72C81.0295 41.2 80.5295 41.5667 79.9162 41.82C79.3162 42.0733 78.6962 42.2 78.0562 42.2C77.1762 42.2 76.3562 42.0533 75.5962 41.76C74.8362 41.4667 74.2162 40.9933 73.7362 40.34Z" fill="white"/>
<path d="M89.6246 31.1C90.9446 31.1 91.8579 31.5067 92.3646 32.32C92.8713 33.12 93.1246 34.2333 93.1246 35.66V40.78C93.1246 41.1267 93.0113 41.42 92.7846 41.66C92.5579 41.8867 92.2713 42 91.9246 42C91.5779 42 91.2913 41.8867 91.0646 41.66C90.8379 41.42 90.7246 41.1267 90.7246 40.78V35.66C90.7246 34.9267 90.5779 34.3533 90.2846 33.94C90.0046 33.5133 89.5046 33.3 88.7846 33.3C88.0379 33.3 87.4513 33.5267 87.0246 33.98C86.6113 34.42 86.4046 34.98 86.4046 35.66V40.78C86.4046 41.1267 86.2913 41.42 86.0646 41.66C85.8379 41.8867 85.5513 42 85.2046 42C84.8579 42 84.5713 41.8867 84.3446 41.66C84.1179 41.42 84.0046 41.1267 84.0046 40.78V28.42C84.0046 28.0733 84.1179 27.7867 84.3446 27.56C84.5713 27.32 84.8579 27.2 85.2046 27.2C85.5513 27.2 85.8379 27.32 86.0646 27.56C86.2913 27.7867 86.4046 28.0733 86.4046 28.42V32.84C86.7646 32.36 87.2179 31.9533 87.7646 31.62C88.3246 31.2733 88.9446 31.1 89.6246 31.1Z" fill="white"/>
<path d="M106.003 36.66C106.003 37.7267 105.763 38.6867 105.283 39.54C104.803 40.38 104.143 41.0333 103.303 41.5C102.477 41.9667 101.563 42.2 100.563 42.2C99.55 42.2 98.63 41.9667 97.8034 41.5C96.9767 41.0333 96.3233 40.38 95.8433 39.54C95.3633 38.6867 95.1234 37.7267 95.1234 36.66C95.1234 35.5933 95.3633 34.64 95.8433 33.8C96.3233 32.9467 96.9767 32.2867 97.8034 31.82C98.63 31.34 99.55 31.1 100.563 31.1C101.563 31.1 102.477 31.34 103.303 31.82C104.143 32.2867 104.803 32.9467 105.283 33.8C105.763 34.64 106.003 35.5933 106.003 36.66ZM103.603 36.66C103.603 36.0067 103.463 35.4267 103.183 34.92C102.917 34.4 102.55 34 102.083 33.72C101.63 33.44 101.123 33.3 100.563 33.3C100.003 33.3 99.49 33.44 99.0233 33.72C98.57 34 98.2034 34.4 97.9234 34.92C97.6567 35.4267 97.5233 36.0067 97.5233 36.66C97.5233 37.3133 97.6567 37.8933 97.9234 38.4C98.2034 38.9067 98.57 39.3 99.0233 39.58C99.49 39.86 100.003 40 100.563 40C101.123 40 101.63 39.86 102.083 39.58C102.55 39.3 102.917 38.9067 103.183 38.4C103.463 37.8933 103.603 37.3133 103.603 36.66Z" fill="white"/>
<path d="M113.549 31.1C114.469 31.1 115.302 31.34 116.049 31.82C116.795 32.2867 117.382 32.94 117.809 33.78C118.249 34.62 118.469 35.5733 118.469 36.64C118.469 37.7067 118.255 38.6667 117.829 39.52C117.402 40.36 116.815 41.02 116.069 41.5C115.335 41.9667 114.522 42.2 113.629 42.2C112.989 42.2 112.382 42.0733 111.809 41.82C111.249 41.5533 110.782 41.2333 110.409 40.86V44.78C110.409 45.1267 110.295 45.4133 110.069 45.64C109.842 45.88 109.555 46 109.209 46C108.862 46 108.575 45.8867 108.349 45.66C108.122 45.4333 108.009 45.14 108.009 44.78V32.52C108.009 32.1733 108.122 31.8867 108.349 31.66C108.575 31.42 108.862 31.3 109.209 31.3C109.555 31.3 109.842 31.42 110.069 31.66C110.295 31.8867 110.409 32.1733 110.409 32.52V32.6C110.729 32.2 111.175 31.8533 111.749 31.56C112.322 31.2533 112.922 31.1 113.549 31.1ZM113.249 40C114.102 40 114.802 39.68 115.349 39.04C115.895 38.4 116.169 37.6 116.169 36.64C116.169 35.68 115.895 34.8867 115.349 34.26C114.815 33.62 114.115 33.3 113.249 33.3C112.382 33.3 111.675 33.62 111.129 34.26C110.582 34.8867 110.309 35.68 110.309 36.64C110.309 37.6 110.582 38.4 111.129 39.04C111.675 39.68 112.382 40 113.249 40Z" fill="white"/>
<path d="M121.529 41.98C121.143 41.98 120.843 41.88 120.629 41.68C120.429 41.4667 120.329 41.1667 120.329 40.78V40.44C120.329 40.0533 120.429 39.76 120.629 39.56C120.843 39.3467 121.143 39.24 121.529 39.24H121.789C122.176 39.24 122.469 39.3467 122.669 39.56C122.883 39.76 122.989 40.0533 122.989 40.44V40.78C122.989 41.1667 122.883 41.4667 122.669 41.68C122.469 41.88 122.176 41.98 121.789 41.98H121.529Z" fill="white"/>
<path d="M130.11 31.1C131.243 31.1 132.157 31.28 132.85 31.64C133.543 31.9867 133.89 32.4533 133.89 33.04C133.89 33.3333 133.803 33.5933 133.63 33.82C133.457 34.0333 133.23 34.14 132.95 34.14C132.737 34.14 132.563 34.1133 132.43 34.06C132.297 33.9933 132.163 33.9133 132.03 33.82C131.91 33.7133 131.79 33.6267 131.67 33.56C131.537 33.4933 131.337 33.4333 131.07 33.38C130.817 33.3267 130.61 33.3 130.45 33.3C129.45 33.3 128.663 33.6133 128.09 34.24C127.53 34.8533 127.25 35.66 127.25 36.66C127.25 37.62 127.537 38.42 128.11 39.06C128.683 39.6867 129.417 40 130.31 40C130.963 40 131.45 39.92 131.77 39.76C131.85 39.72 131.957 39.6533 132.09 39.56C132.237 39.4533 132.37 39.3733 132.49 39.32C132.61 39.2667 132.757 39.24 132.93 39.24C133.263 39.24 133.523 39.3467 133.71 39.56C133.91 39.7733 134.01 40.0467 134.01 40.38C134.01 40.7 133.823 41 133.45 41.28C133.077 41.56 132.583 41.7867 131.97 41.96C131.357 42.12 130.703 42.2 130.01 42.2C128.983 42.2 128.077 41.96 127.29 41.48C126.517 41 125.917 40.34 125.49 39.5C125.063 38.6467 124.85 37.7 124.85 36.66C124.85 35.58 125.07 34.62 125.51 33.78C125.963 32.94 126.59 32.2867 127.39 31.82C128.19 31.34 129.097 31.1 130.11 31.1Z" fill="white"/>
<path d="M142.563 39.8C142.883 39.8 143.15 39.9067 143.363 40.12C143.576 40.32 143.683 40.58 143.683 40.9C143.683 41.2067 143.576 41.4667 143.363 41.68C143.15 41.8933 142.883 42 142.563 42H136.123C135.816 42 135.556 41.8933 135.343 41.68C135.143 41.4533 135.043 41.2133 135.043 40.96C135.043 40.7333 135.07 40.5467 135.123 40.4C135.176 40.24 135.276 40.06 135.423 39.86L140.183 33.7H136.303C135.983 33.7 135.716 33.5933 135.503 33.38C135.29 33.1667 135.183 32.9 135.183 32.58C135.183 32.2733 135.29 32.02 135.503 31.82C135.716 31.6067 135.983 31.5 136.303 31.5H142.463C142.756 31.5 143.003 31.6067 143.203 31.82C143.416 32.02 143.523 32.2733 143.523 32.58C143.523 32.78 143.503 32.9533 143.463 33.1C143.423 33.2333 143.33 33.3933 143.183 33.58L138.383 39.8H142.563Z" fill="white"/>
<path d="M19.4762 0.360352C14.6887 0.360352 10.2984 2.09132 6.89616 4.95899L13.9588 12.0216L11.5892 14.3912L4.5266 7.32864C1.99709 10.3299 0.352787 14.0999 0 18.233H21.1518V0.360352H19.4762Z" fill="#0179BC"/>
<path d="M42.9463 2.59424L36.244 18.2328H39.8899L45.156 5.94537H49.6364V2.59424H42.9463Z" fill="#7FCB1F"/>
<path d="M8.30568 34.9886C4.918 34.9886 2.16193 37.7447 2.16193 41.1324C2.16193 44.5201 4.918 47.2762 8.30568 47.2762C11.6934 47.2762 14.4494 44.5201 14.4494 41.1324C14.4494 37.7447 11.6934 34.9886 8.30568 34.9886Z" fill="#F67F11"/>
<path d="M30.6467 34.9886C27.259 34.9886 24.5029 37.7447 24.5029 41.1324C24.5029 44.5201 27.259 47.2762 30.6467 47.2762C34.0344 47.2762 36.7905 44.5201 36.7905 41.1324C36.7905 37.7447 34.0343 34.9886 30.6467 34.9886Z" fill="#F6ED11"/>
<path d="M0.000915527 21.5841C0.343135 25.5795 1.90494 29.3389 4.50871 32.4323C5.67236 31.9224 6.95611 31.6375 8.3058 31.6375C12.9388 31.6375 16.805 34.9738 17.634 39.3694C18.2431 39.4268 18.8575 39.4568 19.4763 39.4568C20.0951 39.4568 20.7096 39.4268 21.3186 39.3694C22.1477 34.9738 26.0138 31.6375 30.6468 31.6375C31.9964 31.6375 33.2802 31.9224 34.4439 32.4323C37.0478 29.3389 38.6091 25.5795 38.9512 21.5841H0.000915527Z" fill="#E149C8"/>
</svg>
