<svg width="154" height="50" viewBox="0 0 154 50" fill="none" xmlns="http://www.w3.org/2000/svg">
<path d="M66.5908 5C67.8442 5 68.9175 5.31333 69.8108 5.94C70.7175 6.55333 71.4042 7.39333 71.8708 8.46C72.3508 9.51333 72.5908 10.6933 72.5908 12C72.5908 13.3067 72.3508 14.4933 71.8708 15.56C71.4042 16.6133 70.7175 17.4533 69.8108 18.08C68.9175 18.6933 67.8442 19 66.5908 19H61.8108C61.4642 19 61.1708 18.8867 60.9308 18.66C60.7042 18.42 60.5908 18.1267 60.5908 17.78V6.22C60.5908 5.87333 60.7042 5.58667 60.9308 5.36C61.1708 5.12 61.4642 5 61.8108 5H66.5908ZM66.3908 16.7C67.5908 16.7 68.4908 16.26 69.0908 15.38C69.6908 14.4867 69.9908 13.36 69.9908 12C69.9908 10.64 69.6842 9.52 69.0708 8.64C68.4708 7.74667 67.5775 7.3 66.3908 7.3H63.0908V16.7H66.3908ZM84.4439 13.4C84.4306 13.72 84.3039 13.98 84.0639 14.18C83.8239 14.38 83.5439 14.48 83.2239 14.48H76.6239C76.7839 15.2667 77.1506 15.8867 77.7239 16.34C78.2973 16.78 78.9439 17 79.6639 17C80.2106 17 80.6373 16.9533 80.9439 16.86C81.2506 16.7533 81.4906 16.6467 81.6639 16.54C81.8506 16.42 81.9773 16.34 82.0439 16.3C82.2839 16.18 82.5106 16.12 82.7239 16.12C83.0039 16.12 83.2439 16.22 83.4439 16.42C83.6439 16.62 83.7439 16.8533 83.7439 17.12C83.7439 17.48 83.5573 17.8067 83.1839 18.1C82.8106 18.4067 82.3106 18.6667 81.6839 18.88C81.0573 19.0933 80.4239 19.2 79.7839 19.2C78.6639 19.2 77.6839 18.9667 76.8439 18.5C76.0173 18.0333 75.3773 17.3933 74.9239 16.58C74.4706 15.7533 74.2439 14.8267 74.2439 13.8C74.2439 12.6533 74.4839 11.6467 74.9639 10.78C75.4439 9.91333 76.0773 9.25333 76.8639 8.8C77.6506 8.33333 78.4906 8.1 79.3839 8.1C80.2639 8.1 81.0906 8.34 81.8639 8.82C82.6506 9.3 83.2773 9.94667 83.7439 10.76C84.2106 11.5733 84.4439 12.4533 84.4439 13.4ZM79.3839 10.3C77.8373 10.3 76.9239 11.0267 76.6439 12.48H81.8839V12.34C81.8306 11.78 81.5573 11.3 81.0639 10.9C80.5706 10.5 80.0106 10.3 79.3839 10.3ZM81.3839 4.08C81.5573 4.08 81.7106 4.13333 81.8439 4.24C81.9773 4.33333 82.0439 4.45333 82.0439 4.6C82.0439 4.81333 81.9373 5.04667 81.7239 5.3L80.8439 6.4C80.6839 6.61333 80.5039 6.76667 80.3039 6.86C80.1173 6.95333 79.8906 7 79.6239 7H78.9039C78.6373 7 78.4039 6.95333 78.2039 6.86C78.0173 6.76667 77.8439 6.61333 77.6839 6.4L76.8039 5.3C76.6439 5.08667 76.5639 4.87333 76.5639 4.66C76.5639 4.48667 76.6306 4.34667 76.7639 4.24C76.9106 4.13333 77.1173 4.08 77.3839 4.08C77.6239 4.08 77.9239 4.23333 78.2839 4.54L79.2839 5.4L80.2839 4.54C80.4973 4.36667 80.6706 4.24667 80.8039 4.18C80.9506 4.11333 81.1439 4.08 81.3839 4.08ZM91.6055 16.74C91.7922 16.74 91.9588 16.8333 92.1055 17.02C92.2655 17.1933 92.3455 17.4267 92.3455 17.72C92.3455 18.08 92.1455 18.3867 91.7455 18.64C91.3588 18.88 90.9188 19 90.4255 19C89.5988 19 88.8988 18.8267 88.3255 18.48C87.7655 18.12 87.4855 17.3667 87.4855 16.22V10.7H86.5655C86.2455 10.7 85.9788 10.5933 85.7655 10.38C85.5522 10.1667 85.4455 9.9 85.4455 9.58C85.4455 9.27333 85.5522 9.02 85.7655 8.82C85.9788 8.60667 86.2455 8.5 86.5655 8.5H87.4855V7.22C87.4855 6.87333 87.5988 6.58667 87.8255 6.36C88.0655 6.12 88.3588 6 88.7055 6C89.0388 6 89.3188 6.12 89.5455 6.36C89.7722 6.58667 89.8855 6.87333 89.8855 7.22V8.5H91.3055C91.6255 8.5 91.8922 8.60667 92.1055 8.82C92.3188 9.03333 92.4255 9.3 92.4255 9.62C92.4255 9.92667 92.3188 10.1867 92.1055 10.4C91.8922 10.6 91.6255 10.7 91.3055 10.7H89.8855V16.12C89.8855 16.4 89.9588 16.6067 90.1055 16.74C90.2522 16.86 90.4522 16.92 90.7055 16.92C90.8122 16.92 90.9588 16.8933 91.1455 16.84C91.3055 16.7733 91.4588 16.74 91.6055 16.74ZM94.3997 17.34C94.2797 17.18 94.2197 16.98 94.2197 16.74C94.2197 16.3933 94.3931 16.1 94.7397 15.86C94.9264 15.74 95.1197 15.68 95.3197 15.68C95.5997 15.68 95.8664 15.8067 96.1197 16.06C96.5197 16.4733 96.9331 16.78 97.3597 16.98C97.7997 17.18 98.3264 17.28 98.9397 17.28C99.9797 17.24 100.5 16.8467 100.5 16.1C100.5 15.7133 100.32 15.42 99.9597 15.22C99.6131 15.02 99.0664 14.82 98.3197 14.62C97.5464 14.4067 96.9131 14.1933 96.4197 13.98C95.9397 13.7667 95.5197 13.4467 95.1597 13.02C94.8131 12.58 94.6397 11.9933 94.6397 11.26C94.6397 10.62 94.8197 10.0667 95.1797 9.6C95.5531 9.12 96.0331 8.75333 96.6197 8.5C97.2197 8.23333 97.8531 8.1 98.5197 8.1C99.1997 8.1 99.8797 8.22667 100.56 8.48C101.24 8.73333 101.773 9.10667 102.16 9.6C102.333 9.81333 102.42 10.0533 102.42 10.32C102.42 10.6267 102.293 10.88 102.04 11.08C101.853 11.2267 101.64 11.3 101.4 11.3C101.106 11.3 100.866 11.2067 100.68 11.02C100.44 10.7267 100.126 10.4933 99.7397 10.32C99.3664 10.1467 98.9397 10.06 98.4597 10.06C97.4464 10.06 96.9397 10.4267 96.9397 11.16C96.9397 11.4533 97.0331 11.6933 97.2197 11.88C97.4064 12.0533 97.6397 12.1933 97.9197 12.3C98.2131 12.3933 98.6197 12.5133 99.1397 12.66C99.8597 12.86 100.46 13.0667 100.94 13.28C101.42 13.4933 101.826 13.82 102.16 14.26C102.493 14.7 102.66 15.28 102.66 16C102.66 16.6533 102.466 17.2267 102.08 17.72C101.693 18.2 101.193 18.5667 100.58 18.82C99.9797 19.0733 99.3597 19.2 98.7197 19.2C97.8397 19.2 97.0197 19.0533 96.2597 18.76C95.4997 18.4667 94.8797 17.9933 94.3997 17.34ZM113.568 16.9C113.821 17.1667 113.948 17.4667 113.948 17.8C113.948 18.1333 113.815 18.4133 113.548 18.64C113.295 18.8667 113.021 18.98 112.728 18.98C112.381 18.98 112.088 18.8467 111.848 18.58L108.248 14.78L107.268 15.68V17.78C107.268 18.1267 107.155 18.42 106.928 18.66C106.701 18.8867 106.415 19 106.068 19C105.721 19 105.435 18.8867 105.208 18.66C104.981 18.42 104.868 18.1267 104.868 17.78V5.42C104.868 5.07333 104.981 4.78667 105.208 4.56C105.435 4.32 105.721 4.2 106.068 4.2C106.415 4.2 106.701 4.32 106.928 4.56C107.155 4.78667 107.268 5.07333 107.268 5.42V12.82L111.548 8.68C111.801 8.42667 112.095 8.3 112.428 8.3C112.721 8.3 112.981 8.42667 113.208 8.68C113.448 8.92 113.568 9.16667 113.568 9.42C113.568 9.74 113.408 10.04 113.088 10.32L110.068 13.1L113.568 16.9ZM123.995 8.3C124.342 8.3 124.628 8.42 124.855 8.66C125.082 8.88667 125.195 9.17333 125.195 9.52V18.02C125.195 19.7533 124.728 21.0133 123.795 21.8C122.862 22.6 121.615 23 120.055 23C119.602 23 119.135 22.96 118.655 22.88C118.188 22.8133 117.808 22.72 117.515 22.6C116.862 22.32 116.535 21.9333 116.535 21.44C116.535 21.3467 116.555 21.24 116.595 21.12C116.675 20.8267 116.808 20.6 116.995 20.44C117.195 20.2933 117.408 20.22 117.635 20.22C117.768 20.22 117.895 20.24 118.015 20.28C118.108 20.32 118.268 20.3867 118.495 20.48C118.735 20.5733 118.982 20.6467 119.235 20.7C119.502 20.7667 119.775 20.8 120.055 20.8C121.002 20.8 121.695 20.5933 122.135 20.18C122.588 19.78 122.815 19.0867 122.815 18.1V17.9C122.122 18.7667 121.042 19.2 119.575 19.2C118.882 19.2 118.268 19.04 117.735 18.72C117.202 18.3867 116.788 17.9333 116.495 17.36C116.202 16.7733 116.055 16.1067 116.055 15.36V9.52C116.055 9.17333 116.168 8.88667 116.395 8.66C116.622 8.42 116.908 8.3 117.255 8.3C117.602 8.3 117.888 8.42 118.115 8.66C118.342 8.88667 118.455 9.17333 118.455 9.52V14.64C118.455 15.48 118.635 16.0867 118.995 16.46C119.368 16.82 119.908 17 120.615 17C121.308 17 121.842 16.8 122.215 16.4C122.602 15.9867 122.795 15.4 122.795 14.64V9.52C122.795 9.17333 122.908 8.88667 123.135 8.66C123.362 8.42 123.648 8.3 123.995 8.3ZM120.735 7.62C120.602 7.62 120.455 7.56 120.295 7.44C120.148 7.32 120.082 7.16 120.095 6.96C120.095 6.84 120.135 6.71333 120.215 6.58L121.375 4.54C121.508 4.3 121.668 4.10667 121.855 3.96C122.042 3.81333 122.248 3.74 122.475 3.74C122.835 3.74 123.102 3.83333 123.275 4.02C123.462 4.20667 123.548 4.44667 123.535 4.74C123.508 5.04667 123.382 5.33333 123.155 5.6L121.635 7.28C121.422 7.50667 121.122 7.62 120.735 7.62ZM69.9908 35.4C69.9775 35.72 69.8508 35.98 69.6108 36.18C69.3708 36.38 69.0908 36.48 68.7708 36.48H62.1708C62.3308 37.2667 62.6975 37.8867 63.2708 38.34C63.8442 38.78 64.4908 39 65.2108 39C65.7575 39 66.1842 38.9533 66.4908 38.86C66.7975 38.7533 67.0375 38.6467 67.2108 38.54C67.3975 38.42 67.5242 38.34 67.5908 38.3C67.8308 38.18 68.0575 38.12 68.2708 38.12C68.5508 38.12 68.7908 38.22 68.9908 38.42C69.1908 38.62 69.2908 38.8533 69.2908 39.12C69.2908 39.48 69.1042 39.8067 68.7308 40.1C68.3575 40.4067 67.8575 40.6667 67.2308 40.88C66.6042 41.0933 65.9708 41.2 65.3308 41.2C64.2108 41.2 63.2308 40.9667 62.3908 40.5C61.5642 40.0333 60.9242 39.3933 60.4708 38.58C60.0175 37.7533 59.7908 36.8267 59.7908 35.8C59.7908 34.6533 60.0308 33.6467 60.5108 32.78C60.9908 31.9133 61.6242 31.2533 62.4108 30.8C63.1975 30.3333 64.0375 30.1 64.9308 30.1C65.8108 30.1 66.6375 30.34 67.4108 30.82C68.1975 31.3 68.8242 31.9467 69.2908 32.76C69.7575 33.5733 69.9908 34.4533 69.9908 35.4ZM64.9308 32.3C63.3842 32.3 62.4708 33.0267 62.1908 34.48H67.4308V34.34C67.3775 33.78 67.1042 33.3 66.6108 32.9C66.1175 32.5 65.5575 32.3 64.9308 32.3ZM71.3724 39.34C71.2524 39.18 71.1924 38.98 71.1924 38.74C71.1924 38.3933 71.3657 38.1 71.7124 37.86C71.899 37.74 72.0924 37.68 72.2924 37.68C72.5724 37.68 72.839 37.8067 73.0924 38.06C73.4924 38.4733 73.9057 38.78 74.3324 38.98C74.7724 39.18 75.299 39.28 75.9124 39.28C76.9524 39.24 77.4724 38.8467 77.4724 38.1C77.4724 37.7133 77.2924 37.42 76.9324 37.22C76.5857 37.02 76.039 36.82 75.2924 36.62C74.519 36.4067 73.8857 36.1933 73.3924 35.98C72.9124 35.7667 72.4924 35.4467 72.1324 35.02C71.7857 34.58 71.6124 33.9933 71.6124 33.26C71.6124 32.62 71.7924 32.0667 72.1524 31.6C72.5257 31.12 73.0057 30.7533 73.5924 30.5C74.1924 30.2333 74.8257 30.1 75.4924 30.1C76.1724 30.1 76.8524 30.2267 77.5324 30.48C78.2124 30.7333 78.7457 31.1067 79.1324 31.6C79.3057 31.8133 79.3924 32.0533 79.3924 32.32C79.3924 32.6267 79.2657 32.88 79.0124 33.08C78.8257 33.2267 78.6124 33.3 78.3724 33.3C78.079 33.3 77.839 33.2067 77.6524 33.02C77.4124 32.7267 77.099 32.4933 76.7124 32.32C76.339 32.1467 75.9124 32.06 75.4324 32.06C74.419 32.06 73.9124 32.4267 73.9124 33.16C73.9124 33.4533 74.0057 33.6933 74.1924 33.88C74.379 34.0533 74.6124 34.1933 74.8924 34.3C75.1857 34.3933 75.5924 34.5133 76.1124 34.66C76.8324 34.86 77.4324 35.0667 77.9124 35.28C78.3924 35.4933 78.799 35.82 79.1324 36.26C79.4657 36.7 79.6324 37.28 79.6324 38C79.6324 38.6533 79.439 39.2267 79.0524 39.72C78.6657 40.2 78.1657 40.5667 77.5524 40.82C76.9524 41.0733 76.3324 41.2 75.6924 41.2C74.8124 41.2 73.9924 41.0533 73.2324 40.76C72.4724 40.4667 71.8524 39.9933 71.3724 39.34ZM87.2608 30.1C88.5808 30.1 89.4942 30.5067 90.0008 31.32C90.5075 32.12 90.7608 33.2333 90.7608 34.66V39.78C90.7608 40.1267 90.6475 40.42 90.4208 40.66C90.1942 40.8867 89.9075 41 89.5608 41C89.2142 41 88.9275 40.8867 88.7008 40.66C88.4742 40.42 88.3608 40.1267 88.3608 39.78V34.66C88.3608 33.9267 88.2142 33.3533 87.9208 32.94C87.6408 32.5133 87.1408 32.3 86.4208 32.3C85.6742 32.3 85.0875 32.5267 84.6608 32.98C84.2475 33.42 84.0408 33.98 84.0408 34.66V39.78C84.0408 40.1267 83.9275 40.42 83.7008 40.66C83.4742 40.8867 83.1875 41 82.8408 41C82.4942 41 82.2075 40.8867 81.9808 40.66C81.7542 40.42 81.6408 40.1267 81.6408 39.78V27.42C81.6408 27.0733 81.7542 26.7867 81.9808 26.56C82.2075 26.32 82.4942 26.2 82.8408 26.2C83.1875 26.2 83.4742 26.32 83.7008 26.56C83.9275 26.7867 84.0408 27.0733 84.0408 27.42V31.84C84.4008 31.36 84.8542 30.9533 85.4008 30.62C85.9608 30.2733 86.5808 30.1 87.2608 30.1ZM103.64 35.66C103.64 36.7267 103.4 37.6867 102.92 38.54C102.44 39.38 101.78 40.0333 100.94 40.5C100.113 40.9667 99.1996 41.2 98.1996 41.2C97.1862 41.2 96.2662 40.9667 95.4396 40.5C94.6129 40.0333 93.9596 39.38 93.4796 38.54C92.9996 37.6867 92.7596 36.7267 92.7596 35.66C92.7596 34.5933 92.9996 33.64 93.4796 32.8C93.9596 31.9467 94.6129 31.2867 95.4396 30.82C96.2662 30.34 97.1862 30.1 98.1996 30.1C99.1996 30.1 100.113 30.34 100.94 30.82C101.78 31.2867 102.44 31.9467 102.92 32.8C103.4 33.64 103.64 34.5933 103.64 35.66ZM101.24 35.66C101.24 35.0067 101.1 34.4267 100.82 33.92C100.553 33.4 100.186 33 99.7196 32.72C99.2662 32.44 98.7596 32.3 98.1996 32.3C97.6396 32.3 97.1262 32.44 96.6596 32.72C96.2062 33 95.8396 33.4 95.5596 33.92C95.2929 34.4267 95.1596 35.0067 95.1596 35.66C95.1596 36.3133 95.2929 36.8933 95.5596 37.4C95.8396 37.9067 96.2062 38.3 96.6596 38.58C97.1262 38.86 97.6396 39 98.1996 39C98.7596 39 99.2662 38.86 99.7196 38.58C100.186 38.3 100.553 37.9067 100.82 37.4C101.1 36.8933 101.24 36.3133 101.24 35.66ZM111.185 30.1C112.105 30.1 112.938 30.34 113.685 30.82C114.431 31.2867 115.018 31.94 115.445 32.78C115.885 33.62 116.105 34.5733 116.105 35.64C116.105 36.7067 115.891 37.6667 115.465 38.52C115.038 39.36 114.451 40.02 113.705 40.5C112.971 40.9667 112.158 41.2 111.265 41.2C110.625 41.2 110.018 41.0733 109.445 40.82C108.885 40.5533 108.418 40.2333 108.045 39.86V43.78C108.045 44.1267 107.931 44.4133 107.705 44.64C107.478 44.88 107.191 45 106.845 45C106.498 45 106.211 44.8867 105.985 44.66C105.758 44.4333 105.645 44.14 105.645 43.78V31.52C105.645 31.1733 105.758 30.8867 105.985 30.66C106.211 30.42 106.498 30.3 106.845 30.3C107.191 30.3 107.478 30.42 107.705 30.66C107.931 30.8867 108.045 31.1733 108.045 31.52V31.6C108.365 31.2 108.811 30.8533 109.385 30.56C109.958 30.2533 110.558 30.1 111.185 30.1ZM110.885 39C111.738 39 112.438 38.68 112.985 38.04C113.531 37.4 113.805 36.6 113.805 35.64C113.805 34.68 113.531 33.8867 112.985 33.26C112.451 32.62 111.751 32.3 110.885 32.3C110.018 32.3 109.311 32.62 108.765 33.26C108.218 33.8867 107.945 34.68 107.945 35.64C107.945 36.6 108.218 37.4 108.765 38.04C109.311 38.68 110.018 39 110.885 39ZM119.166 40.98C118.779 40.98 118.479 40.88 118.266 40.68C118.066 40.4667 117.966 40.1667 117.966 39.78V39.44C117.966 39.0533 118.066 38.76 118.266 38.56C118.479 38.3467 118.779 38.24 119.166 38.24H119.426C119.812 38.24 120.106 38.3467 120.306 38.56C120.519 38.76 120.626 39.0533 120.626 39.44V39.78C120.626 40.1667 120.519 40.4667 120.306 40.68C120.106 40.88 119.812 40.98 119.426 40.98H119.166ZM127.746 30.1C128.879 30.1 129.793 30.28 130.486 30.64C131.179 30.9867 131.526 31.4533 131.526 32.04C131.526 32.3333 131.439 32.5933 131.266 32.82C131.093 33.0333 130.866 33.14 130.586 33.14C130.373 33.14 130.199 33.1133 130.066 33.06C129.933 32.9933 129.799 32.9133 129.666 32.82C129.546 32.7133 129.426 32.6267 129.306 32.56C129.173 32.4933 128.973 32.4333 128.706 32.38C128.453 32.3267 128.246 32.3 128.086 32.3C127.086 32.3 126.299 32.6133 125.726 33.24C125.166 33.8533 124.886 34.66 124.886 35.66C124.886 36.62 125.173 37.42 125.746 38.06C126.319 38.6867 127.053 39 127.946 39C128.599 39 129.086 38.92 129.406 38.76C129.486 38.72 129.593 38.6533 129.726 38.56C129.873 38.4533 130.006 38.3733 130.126 38.32C130.246 38.2667 130.393 38.24 130.566 38.24C130.899 38.24 131.159 38.3467 131.346 38.56C131.546 38.7733 131.646 39.0467 131.646 39.38C131.646 39.7 131.459 40 131.086 40.28C130.713 40.56 130.219 40.7867 129.606 40.96C128.993 41.12 128.339 41.2 127.646 41.2C126.619 41.2 125.713 40.96 124.926 40.48C124.153 40 123.553 39.34 123.126 38.5C122.699 37.6467 122.486 36.7 122.486 35.66C122.486 34.58 122.706 33.62 123.146 32.78C123.599 31.94 124.226 31.2867 125.026 30.82C125.826 30.34 126.733 30.1 127.746 30.1ZM140.199 38.8C140.519 38.8 140.786 38.9067 140.999 39.12C141.212 39.32 141.319 39.58 141.319 39.9C141.319 40.2067 141.212 40.4667 140.999 40.68C140.786 40.8933 140.519 41 140.199 41H133.759C133.452 41 133.192 40.8933 132.979 40.68C132.779 40.4533 132.679 40.2133 132.679 39.96C132.679 39.7333 132.706 39.5467 132.759 39.4C132.812 39.24 132.912 39.06 133.059 38.86L137.819 32.7H133.939C133.619 32.7 133.352 32.5933 133.139 32.38C132.926 32.1667 132.819 31.9 132.819 31.58C132.819 31.2733 132.926 31.02 133.139 30.82C133.352 30.6067 133.619 30.5 133.939 30.5H140.099C140.392 30.5 140.639 30.6067 140.839 30.82C141.052 31.02 141.159 31.2733 141.159 31.58C141.159 31.78 141.139 31.9533 141.099 32.1C141.059 32.2333 140.966 32.3933 140.819 32.58L136.019 38.8H140.199Z" fill="white"/>
<path d="M18.7271 1.30811C14.1237 1.30811 9.90229 2.9725 6.63092 5.72987L13.4219 12.5208L11.1435 14.7993L4.3525 8.00838C1.92028 10.8942 0.339218 14.5192 0 18.4934H20.3382V1.30811H18.7271Z" fill="white"/>
<path d="M41.2946 3.45605L34.8501 18.4931H38.3557L43.4193 6.6783H47.7274V3.45605H41.2946Z" fill="white"/>
<path d="M7.98607 34.6045C4.72869 34.6045 2.07861 37.2546 2.07861 40.512C2.07861 43.7693 4.72869 46.4194 7.98607 46.4194C11.2435 46.4194 13.8935 43.7693 13.8935 40.512C13.8935 37.2546 11.2435 34.6045 7.98607 34.6045Z" fill="white"/>
<path d="M29.468 34.6045C26.2106 34.6045 23.5605 37.2546 23.5605 40.512C23.5605 43.7693 26.2106 46.4194 29.468 46.4194C32.7254 46.4194 35.3755 43.7693 35.3755 40.512C35.3755 37.2546 32.7253 34.6045 29.468 34.6045Z" fill="white"/>
<path d="M0.000976562 21.7158C0.330034 25.5576 1.83177 29.1724 4.3354 32.1468C5.45428 31.6565 6.68867 31.3826 7.98644 31.3826C12.4412 31.3826 16.1587 34.5905 16.9559 38.8171C17.5415 38.8723 18.1323 38.9011 18.7273 38.9011C19.3223 38.9011 19.9131 38.8723 20.4987 38.8171C21.2959 34.5905 25.0133 31.3826 29.4682 31.3826C30.7659 31.3826 32.0002 31.6565 33.1192 32.1468C35.623 29.1724 37.1242 25.5576 37.4532 21.7158H0.000976562Z" fill="white"/>
</svg>
