<svg width="260" height="140" viewBox="0 0 260 140" fill="none" xmlns="http://www.w3.org/2000/svg">
<path d="M130.063 139.361C73.8166 139.361 9.672 132.093 9.035 131.966L0 130.945V0H260V130.945L250.964 131.966C250.328 132.093 186.311 139.361 130.064 139.361" fill="#CB001B"/>
<path d="M224.24 84.7896L206.804 42.4586C206.743 42.3808 206.666 42.3175 206.578 42.2733C206.49 42.2292 206.394 42.2053 206.295 42.2033L194.46 42.4586C194.362 42.4605 194.265 42.4845 194.177 42.5286C194.089 42.5728 194.012 42.6361 193.951 42.7139L180.333 78.1593C178.043 77.7764 176.388 76.6294 173.461 72.1681L170.152 67.323C172.209 66.3733 173.944 64.841 175.143 62.9151C176.342 60.9892 176.951 58.754 176.897 56.485C176.897 47.4322 169.261 42.3318 155.899 42.3318H142.79C142.658 42.341 142.534 42.3976 142.441 42.4913C142.347 42.5849 142.291 42.7094 142.281 42.8415V85.0405C142.291 85.1727 142.347 85.2971 142.441 85.3908C142.534 85.4845 142.658 85.5411 142.79 85.5502H153.226C153.358 85.5411 153.482 85.4845 153.575 85.3908C153.669 85.2971 153.725 85.1727 153.734 85.0405V70.6364H159.334L163.024 76.6276C167.605 84.1505 170.023 85.2975 178.168 85.4252H188.604C188.702 85.4232 188.799 85.3993 188.887 85.3552C188.975 85.311 189.052 85.2477 189.113 85.1699L192.422 76.5H208.329L211.893 85.1699C211.954 85.2477 212.031 85.311 212.119 85.3552C212.207 85.3993 212.303 85.4232 212.402 85.4252H223.983C224.11 85.4252 224.238 85.2975 224.365 85.1699C224.317 85.1196 224.28 85.0592 224.258 84.9929C224.236 84.9267 224.229 84.8563 224.238 84.787L224.24 84.7896ZM158.699 63.1135C156.663 63.1135 154.625 62.9859 153.735 62.9859V50.4912H155.902C160.229 50.4912 165.319 51.6391 165.319 56.9938C165.319 60.8186 162.774 63.1135 158.701 63.1135H158.699ZM194.208 68.8512L199.807 52.6584L206.047 68.8512H194.208Z" fill="white"/>
<path d="M98.1206 42.5854C98.1115 42.4532 98.055 42.3288 97.9614 42.2351C97.8679 42.1414 97.7438 42.0848 97.6118 42.0757H82.9764C82.878 42.0776 82.7813 42.1016 82.6933 42.1457C82.6053 42.1899 82.5282 42.2532 82.4677 42.331L70.5042 71.9111L58.7964 42.331C58.7359 42.2531 58.6587 42.1897 58.5705 42.1455C58.4823 42.1014 58.3854 42.0775 58.2868 42.0757H43.7788C43.6469 42.0848 43.5227 42.1414 43.4292 42.2351C43.3357 42.3288 43.2792 42.4532 43.2701 42.5854L41.4882 84.7887C41.4784 84.858 41.4848 84.9285 41.5068 84.9949C41.5289 85.0612 41.5661 85.1215 41.6155 85.1709C41.6648 85.2204 41.725 85.2576 41.7912 85.2798C41.8574 85.3019 41.9279 85.3083 41.997 85.2984H51.669C51.8009 85.2893 51.9251 85.2327 52.0186 85.139C52.1121 85.0453 52.1686 84.9209 52.1777 84.7887L53.1969 56.3556L64.5234 85.044C64.5839 85.1218 64.6609 85.1851 64.7489 85.2293C64.8369 85.2734 64.9337 85.2974 65.0321 85.2993H75.7216C75.82 85.2974 75.9167 85.2734 76.0047 85.2293C76.0928 85.1851 76.1698 85.1218 76.2303 85.044L87.6816 56.2289L88.9538 84.7896C88.9629 84.9218 89.0195 85.0462 89.113 85.1399C89.2065 85.2335 89.3306 85.2902 89.4626 85.2993H100.026C100.095 85.3091 100.165 85.3028 100.231 85.2806C100.297 85.2585 100.358 85.2212 100.407 85.1718C100.456 85.1223 100.494 85.0621 100.516 84.9957C100.538 84.9294 100.544 84.8588 100.534 84.7896L98.1206 42.5854Z" fill="white"/>
<path d="M136.936 76.7562C136.886 76.7077 136.825 76.671 136.759 76.6489C136.693 76.6268 136.623 76.6199 136.554 76.6285H118.614V67.831H133.503C133.635 67.8219 133.759 67.7652 133.853 67.6716C133.946 67.5779 134.003 67.4535 134.012 67.3213V59.7984C134.003 59.6662 133.946 59.5418 133.853 59.4482C133.759 59.3545 133.635 59.2978 133.503 59.2887H118.61V50.8732H134.773C134.905 50.8641 135.029 50.8075 135.122 50.7138C135.216 50.6201 135.272 50.4957 135.281 50.3635V42.5854C135.272 42.4532 135.216 42.3288 135.122 42.2351C135.029 42.1414 134.905 42.0848 134.773 42.0757H107.665C107.533 42.0848 107.409 42.1414 107.316 42.2351C107.222 42.3288 107.166 42.4532 107.156 42.5854V84.7844C107.166 84.9166 107.222 85.041 107.316 85.1346C107.409 85.2283 107.533 85.285 107.665 85.2941H135.918C136.05 85.285 136.175 85.2283 136.268 85.1346C136.362 85.041 136.418 84.9166 136.427 84.7844L137.063 77.0071C136.994 76.9383 136.949 76.8486 136.936 76.7518" fill="white"/>
<path d="M69.3593 100.982V110.417H67.9597V100.982H64.3959V99.8345H73.0496L72.9222 100.982H69.3593Z" fill="white"/>
<path d="M74.3219 98.9419L75.7216 98.8142V103.787C76.029 103.454 76.4037 103.191 76.8207 103.015C77.2376 102.839 77.6873 102.755 78.1396 102.767C79.9214 102.767 80.9398 103.915 80.9398 105.827V110.416H79.5401V106.082C79.5401 104.552 79.0314 103.911 77.7582 103.911C77.3964 103.922 77.0406 104.006 76.7127 104.16C76.3848 104.313 76.0918 104.532 75.8516 104.804V110.414H74.4493V98.9419H74.3219Z" fill="white"/>
<path d="M86.6666 110.544C83.8664 110.544 82.4668 109.014 82.4668 106.592C82.4217 106.089 82.4852 105.582 82.6529 105.106C82.8206 104.631 83.0886 104.196 83.4388 103.834C83.7889 103.471 84.2129 103.188 84.6819 103.003C85.151 102.819 85.6541 102.739 86.157 102.767C87.9389 102.767 89.2112 103.915 89.2112 106.082V106.592H83.8664C83.8386 106.984 83.8953 107.377 84.0325 107.746C84.1698 108.114 84.3844 108.449 84.6619 108.727C84.9395 109.005 85.2734 109.22 85.6411 109.357C86.0088 109.495 86.4017 109.552 86.7932 109.524C87.6247 109.515 88.4464 109.341 89.2112 109.014V110.034C88.395 110.338 87.5358 110.51 86.6658 110.544H86.6666ZM86.0296 103.658C85.7612 103.655 85.4948 103.705 85.246 103.806C84.9973 103.907 84.7713 104.057 84.5815 104.247C84.3917 104.437 84.2419 104.664 84.141 104.913C84.04 105.162 83.99 105.429 83.9938 105.698H88.0672C88.0542 105.161 87.8355 104.65 87.4565 104.27C87.0775 103.891 86.5672 103.671 86.0314 103.658" fill="white"/>
<path d="M107.029 110.544C104.229 110.544 102.829 109.014 102.829 106.592C102.784 106.089 102.848 105.582 103.015 105.106C103.183 104.631 103.451 104.196 103.801 103.834C104.151 103.471 104.575 103.188 105.044 103.003C105.513 102.819 106.016 102.739 106.519 102.767C108.301 102.767 109.574 103.915 109.574 106.082V106.592H104.229C104.201 106.984 104.258 107.377 104.395 107.746C104.532 108.114 104.747 108.449 105.024 108.727C105.302 109.005 105.636 109.22 106.003 109.357C106.371 109.495 106.764 109.552 107.156 109.524C107.987 109.515 108.809 109.341 109.574 109.014V110.034C108.757 110.338 107.898 110.51 107.028 110.544H107.029ZM106.392 103.658C106.124 103.655 105.857 103.705 105.608 103.806C105.36 103.907 105.134 104.057 104.944 104.247C104.754 104.437 104.604 104.664 104.503 104.913C104.402 105.162 104.352 105.429 104.356 105.698H108.43C108.417 105.161 108.198 104.65 107.819 104.27C107.44 103.891 106.93 103.671 106.394 103.658" fill="white"/>
<path d="M114.793 110.545C113.393 110.545 112.247 110.035 112.247 108.122V104.17H111.229V103.277L112.247 103.15L112.502 101.62H113.647V103.15H116.065V104.17H113.647V107.995C113.647 109.143 114.283 109.397 115.047 109.397C115.485 109.414 115.921 109.327 116.319 109.142V110.162C115.842 110.394 115.322 110.524 114.792 110.544" fill="white"/>
<path d="M119.12 104.041H117.974V103.149L119.12 103.021V102.129C119.12 99.9587 120.266 98.6866 122.301 98.6866C122.782 98.6574 123.262 98.745 123.701 98.9419L123.574 99.9621C123.156 99.868 122.729 99.8252 122.301 99.8345C120.774 99.8345 120.395 100.727 120.395 102.005V103.025H122.685L122.558 104.046H120.391V110.297H118.992V104.046L119.12 104.041Z" fill="white"/>
<path d="M127.645 110.544C127.129 110.56 126.614 110.468 126.135 110.273C125.656 110.079 125.223 109.786 124.864 109.414C124.504 109.042 124.226 108.598 124.048 108.112C123.87 107.626 123.794 107.108 123.828 106.592C123.8 106.071 123.885 105.551 124.075 105.066C124.265 104.581 124.557 104.142 124.931 103.78C125.305 103.417 125.752 103.139 126.242 102.964C126.732 102.79 127.254 102.722 127.773 102.767C128.266 102.735 128.76 102.809 129.222 102.983C129.684 103.158 130.104 103.429 130.453 103.779C130.802 104.129 131.073 104.549 131.247 105.012C131.421 105.475 131.495 105.97 131.463 106.464C131.463 109.014 129.808 110.545 127.645 110.545V110.544ZM127.645 103.787C126.118 103.787 125.227 104.807 125.227 106.465C125.227 107.995 126.118 109.397 127.518 109.397H127.645C129.045 109.397 129.936 108.249 129.936 106.465C129.999 106.132 129.987 105.789 129.9 105.462C129.813 105.135 129.653 104.831 129.433 104.574C129.213 104.317 128.938 104.113 128.629 103.976C128.319 103.84 127.983 103.775 127.645 103.787Z" fill="white"/>
<path d="M136.809 110.544C136.292 110.56 135.778 110.468 135.299 110.273C134.82 110.079 134.387 109.786 134.027 109.414C133.668 109.042 133.39 108.598 133.211 108.112C133.033 107.626 132.958 107.108 132.991 106.592C132.964 106.071 133.048 105.551 133.238 105.066C133.429 104.581 133.721 104.142 134.095 103.78C134.468 103.417 134.916 103.139 135.406 102.964C135.896 102.79 136.418 102.722 136.936 102.767C137.429 102.735 137.923 102.809 138.385 102.983C138.847 103.158 139.267 103.429 139.616 103.779C139.965 104.129 140.236 104.549 140.41 105.012C140.584 105.475 140.658 105.97 140.626 106.464C140.626 109.014 138.972 110.545 136.809 110.545V110.544ZM136.809 103.787C135.282 103.787 134.391 104.807 134.391 106.465C134.391 107.995 135.282 109.397 136.681 109.397H136.809C138.208 109.397 139.099 108.249 139.099 106.465C139.162 106.132 139.15 105.789 139.063 105.462C138.976 105.135 138.816 104.831 138.596 104.574C138.376 104.317 138.102 104.113 137.792 103.976C137.483 103.84 137.146 103.775 136.809 103.787Z" fill="white"/>
<path d="M147.881 109.525C147.581 109.867 147.208 110.136 146.789 110.313C146.37 110.489 145.917 110.569 145.463 110.545C143.681 110.545 142.154 109.27 142.154 106.848C142.154 104.298 143.681 102.767 146.481 102.767C146.99 102.767 147.5 102.894 147.881 102.894V98.9419L149.281 98.8142V110.29L148.009 110.417L147.881 109.525ZM146.354 103.787C145.985 103.761 145.615 103.817 145.271 103.95C144.926 104.084 144.615 104.292 144.359 104.56C144.104 104.828 143.911 105.149 143.794 105.5C143.677 105.852 143.638 106.225 143.681 106.592C143.681 108.503 144.827 109.398 145.848 109.398C146.618 109.381 147.349 109.06 147.884 108.505V104.042C147.385 103.905 146.873 103.82 146.357 103.787" fill="white"/>
<path d="M156.79 104.807H160.989V105.955H156.79V110.418H155.263V99.8345H161.242V100.982H156.788L156.79 104.807Z" fill="white"/>
<path d="M168.883 110.545C168.583 110.579 168.281 110.508 168.026 110.346C167.771 110.184 167.58 109.939 167.483 109.652C167.159 109.953 166.778 110.187 166.363 110.34C165.948 110.493 165.507 110.563 165.065 110.545C163.666 110.545 162.647 109.78 162.647 108.505C162.647 107.357 163.538 106.083 167.229 106.083V105.827C167.229 104.553 166.974 103.917 165.574 103.917C164.729 103.931 163.899 104.149 163.156 104.555L163.029 103.534C163.841 103.07 164.768 102.849 165.701 102.897C167.737 102.897 168.628 103.917 168.628 105.702V108.508C168.628 109.4 168.628 109.91 169.647 109.783V110.675C169.392 110.42 169.138 110.547 168.883 110.547V110.545ZM164.047 108.377C164.047 109.014 164.556 109.397 165.447 109.397C166.132 109.38 166.796 109.158 167.353 108.76V106.975C164.808 106.975 164.044 107.74 164.044 108.378" fill="white"/>
<path d="M171.298 102.894L172.57 102.767V103.659C172.877 103.327 173.252 103.064 173.669 102.888C174.086 102.712 174.536 102.627 174.988 102.639C175.454 102.594 175.922 102.691 176.331 102.919C176.74 103.147 177.071 103.494 177.278 103.914C177.597 103.511 178.004 103.187 178.467 102.966C178.931 102.745 179.438 102.633 179.951 102.639C181.733 102.639 182.751 103.787 182.751 105.699V110.289H181.352V105.954C181.352 104.424 180.843 103.783 179.57 103.783C179.175 103.79 178.787 103.886 178.435 104.064C178.082 104.242 177.774 104.497 177.533 104.81C177.645 105.225 177.688 105.655 177.661 106.084V110.42H176.261V106.082C176.261 104.552 175.752 103.911 174.479 103.911C174.117 103.922 173.761 104.006 173.434 104.16C173.106 104.313 172.813 104.532 172.572 104.804V110.414H171.17V102.894H171.298Z" fill="white"/>
<path d="M185.933 101.237C185.815 101.24 185.698 101.219 185.588 101.176C185.478 101.132 185.379 101.066 185.296 100.983C185.212 100.899 185.147 100.799 185.103 100.69C185.059 100.58 185.039 100.462 185.042 100.344C185.043 100.216 185.072 100.09 185.125 99.9738C185.178 99.8575 185.256 99.7539 185.352 99.6696C185.448 99.5854 185.561 99.5224 185.683 99.4848C185.805 99.4472 185.934 99.4359 186.06 99.4516C186.178 99.4482 186.296 99.469 186.405 99.5127C186.515 99.5563 186.614 99.622 186.698 99.7055C186.781 99.7891 186.847 99.8888 186.89 99.9986C186.934 100.108 186.955 100.226 186.951 100.344C186.931 100.597 186.814 100.831 186.623 100.998C186.433 101.165 186.185 101.25 185.933 101.237ZM185.169 103.022L186.569 102.894V110.417H185.169V103.022Z" fill="white"/>
<path d="M189.115 98.9419L190.514 98.8142V110.417H189.115V98.9419Z" fill="white"/>
<path d="M192.296 113.222C193.519 112.838 194.617 112.134 195.478 111.182C193.823 107.484 192.169 102.894 192.169 102.894H193.696C193.696 102.894 195.095 107.102 196.368 109.907C196.955 108.812 197.425 107.658 197.768 106.464C198.118 105.296 198.374 104.102 198.532 102.893H199.931C199.778 104.335 199.435 105.749 198.913 107.101C198.49 108.779 197.709 110.345 196.622 111.691C195.646 112.918 194.311 113.81 192.805 114.241L192.296 113.222Z" fill="white"/>
<path d="M97.4844 99.8345H94.939V110.417H96.4661V100.982H97.357C99.1389 100.982 100.411 101.62 100.411 103.277C100.411 104.68 99.2654 105.448 97.8658 105.448H97.611V106.596H98.1197C100.286 106.596 101.937 105.321 101.937 103.153C101.81 100.982 99.9016 99.838 97.4827 99.838" fill="white"/>
<path d="M222.203 51.6382C221.517 51.6818 220.83 51.5808 220.186 51.3417C219.541 51.1025 218.954 50.7306 218.463 50.2499C217.971 49.7691 217.585 49.1904 217.33 48.551C217.076 47.9115 216.958 47.2257 216.985 46.5379C216.985 43.2227 219.403 41.4375 222.329 41.4375C223.015 41.3939 223.702 41.4949 224.347 41.734C224.991 41.9732 225.578 42.3451 226.07 42.8258C226.562 43.3066 226.947 43.8853 227.202 44.5247C227.457 45.1642 227.574 45.85 227.548 46.5379C227.675 49.7254 225.257 51.6382 222.203 51.6382ZM222.33 42.2033C219.658 42.2033 218.003 43.7333 218.003 46.4111C218.003 48.9613 219.53 50.8732 222.33 50.8732C225.003 50.8732 226.658 49.3433 226.658 46.6655C226.658 43.9877 225.131 42.2033 222.33 42.2033ZM222.966 48.0687L222.076 46.9208H221.312V49.0915H220.294V43.478H221.693C223.22 43.478 223.984 44.1153 223.984 45.1356C223.967 45.4588 223.864 45.7715 223.685 46.0407C223.505 46.31 223.257 46.5258 222.966 46.6655L223.984 47.8134C224.493 48.3231 224.62 48.4507 225.002 48.4507L224.875 49.088C223.984 49.2157 223.729 48.9604 222.968 48.0678L222.966 48.0687ZM221.569 44.243H221.314V46.2834H221.95C222.087 46.296 222.225 46.2782 222.354 46.2314C222.483 46.1845 222.601 46.1098 222.698 46.0124C222.795 45.9151 222.87 45.7975 222.916 45.668C222.963 45.5385 222.981 45.4003 222.968 45.2632C223.096 44.4982 222.586 44.243 221.569 44.243Z" fill="white"/>
</svg>
