<svg width="36" height="36" viewBox="0 0 36 36" fill="none" xmlns="http://www.w3.org/2000/svg">
<path d="M1.26318 22.2072V6.89048C1.26318 6.03937 1.95312 5.34937 2.80429 5.34937H18.1131C18.9642 5.34937 19.6542 6.03937 19.6542 6.89048V22.2072C19.6542 22.491 19.4242 22.721 19.1405 22.721H1.77688C1.49312 22.721 1.26318 22.491 1.26318 22.2072ZM13.6255 27.4544C13.6255 29.2197 12.1944 30.6507 10.4292 30.6507C8.66394 30.6507 7.23282 29.2197 7.23282 27.4544C7.23282 25.689 8.66394 24.258 10.4292 24.258C12.1944 24.258 13.6255 25.689 13.6255 27.4544ZM12.0273 27.4544C12.0273 26.5717 11.3118 25.8562 10.4291 25.8562C9.54647 25.8562 8.83088 26.5717 8.83088 27.4544C8.83088 28.337 9.54647 29.0526 10.4291 29.0526C11.3118 29.0526 12.0273 28.337 12.0273 27.4544ZM7.67618 24.258H0.513706C0.23 24.258 0 24.488 0 24.7717V26.3302C0 26.6139 0.23 26.8439 0.513706 26.8439H6.25477C6.40465 25.8154 6.92376 24.907 7.67618 24.258ZM30.3493 27.4544C30.3493 29.2197 28.9182 30.6507 27.1529 30.6507C25.3876 30.6507 23.9566 29.2197 23.9566 27.4544C23.9566 25.689 25.3876 24.258 27.1529 24.258C28.9182 24.258 30.3493 25.689 30.3493 27.4544ZM28.7512 27.4544C28.7512 26.5717 28.0356 25.8562 27.1529 25.8562C26.2702 25.8562 25.5548 26.5717 25.5548 27.4544C25.5548 28.337 26.2703 29.0526 27.1529 29.0526C28.0356 29.0526 28.7512 28.337 28.7512 27.4544ZM36 24.7717V26.3302C36 26.6139 35.77 26.8439 35.4863 26.8439H31.3272C31.0298 24.8037 29.2739 23.2305 27.1531 23.2305C25.0318 23.2305 23.2759 24.8038 22.9784 26.8439H14.6036C14.4536 25.8155 13.9346 24.907 13.1822 24.258H21.123V9.56436C21.123 8.99695 21.583 8.53695 22.1504 8.53695H27.0001C28.3656 8.53695 29.6419 9.21525 30.406 10.347L33.5325 14.9776C33.9911 15.6568 34.2361 16.4577 34.2361 17.2772V24.258H35.4863C35.77 24.258 36 24.488 36 24.7717ZM30.7887 15.0962L28.2886 11.5437C28.1924 11.407 28.0357 11.3256 27.8685 11.3256H23.9688C23.6852 11.3256 23.4551 11.5556 23.4551 11.8393V15.3918C23.4551 15.6756 23.6851 15.9055 23.9688 15.9055H30.3687C30.7848 15.9055 31.0282 15.4365 30.7887 15.0962Z" fill="white"/>
</svg>
